<mxfile host="app.diagrams.net" agent="Mozilla/5.0 (Macintosh; Intel Mac OS X 10_15_7) AppleWebKit/537.36 (KHTML, like Gecko) Chrome/128.0.0.0 Safari/537.36" version="24.7.16">
  <diagram name="第 1 页" id="Q9ex3cZnuL3nAzAm_46l">
    <mxGraphModel dx="984" dy="659" grid="1" gridSize="10" guides="1" tooltips="1" connect="1" arrows="1" fold="1" page="1" pageScale="1" pageWidth="827" pageHeight="1169" math="0" shadow="0">
      <root>
        <mxCell id="0" />
        <mxCell id="1" parent="0" />
        <mxCell id="X010kzUFNTq8Mb7dgWvW-1" value="" style="shape=image;verticalLabelPosition=bottom;labelBackgroundColor=default;verticalAlign=top;aspect=fixed;imageAspect=0;image=data:image/png,iVBORw0KGgoAAAANSUhEUgAAA5UAAAENCAYAAACfAkHUAAABX2lDQ1BJQ0MgUHJvZmlsZQAAKJFtkMFKAmEQx/8bgiRFHqyDFdgh7KAR62IdupiGBBuIFli33XVbhXX92N2K6FqHHiDqEQzs1gMEvUBQhHTu0LnAS9E2n1up1QzD/Ph/M/MNAwyFFcbMAIC65drF/EqsvLUdCz5jGFGEKJKK5rBMoSBTCb7zoHUeIPB8l+SzwsGr42atfpkenV1S9w7P/tYPWKiiOxrld4q0xmwXECTiwr7LOB8RR2xaivics+Fzi7Pq83W3ZqOYJb4nDmtVpUL8RJxQ+3Sjj+vmrva1A99+RLc2S5SjFFPIYRUyeQwlpCB2PYc81ulO//dJ3b4sGmA4gI0aDFTh0oQMKQwmdOI1WNAwjwSxiAUKid/79x17mmMAizf01UlPU1NA6xSYK/e0mWVgsglcyEyxlZ/rCp2As5MSfZ62gLEJz3u9BcYfgZe4571FPO+jTY9xoF35BDSRYEYEQtRsAAAAVmVYSWZNTQAqAAAACAABh2kABAAAAAEAAAAaAAAAAAADkoYABwAAABIAAABEoAIABAAAAAEAAAOVoAMABAAAAAEAAAENAAAAAEFTQ0lJAAAAU2NyZWVuc2hvdB1trOQAAAHWaVRYdFhNTDpjb20uYWRvYmUueG1wAAAAAAA8eDp4bXBtZXRhIHhtbG5zOng9ImFkb2JlOm5zOm1ldGEvIiB4OnhtcHRrPSJYTVAgQ29yZSA2LjAuMCI+CiAgIDxyZGY6UkRGIHhtbG5zOnJkZj0iaHR0cDovL3d3dy53My5vcmcvMTk5OS8wMi8yMi1yZGYtc3ludGF4LW5zIyI+CiAgICAgIDxyZGY6RGVzY3JpcHRpb24gcmRmOmFib3V0PSIiCiAgICAgICAgICAgIHhtbG5zOmV4aWY9Imh0dHA6Ly9ucy5hZG9iZS5jb20vZXhpZi8xLjAvIj4KICAgICAgICAgPGV4aWY6UGl4ZWxZRGltZW5zaW9uPjI2OTwvZXhpZjpQaXhlbFlEaW1lbnNpb24+CiAgICAgICAgIDxleGlmOlBpeGVsWERpbWVuc2lvbj45MTc8L2V4aWY6UGl4ZWxYRGltZW5zaW9uPgogICAgICAgICA8ZXhpZjpVc2VyQ29tbWVudD5TY3JlZW5zaG90PC9leGlmOlVzZXJDb21tZW50PgogICAgICA8L3JkZjpEZXNjcmlwdGlvbj4KICAgPC9yZGY6UkRGPgo8L3g6eG1wbWV0YT4KcDOqvQAAQABJREFUeAHsnQVcVNkXx38M3Q2SIiKgImBhJ2Ih5uq6dmHn2rVrdwd2d+3fWLu7E0xYQVG6G2aY+b8ZYAhnmKEZONfPyHv3nnvvOd/73sw9792Q4zEBFIgAESACRIAIEAEiQASIABEgAkSACBSCAKsQeSgLESACRIAIEAEiQASIABEgAkSACBABAQFyKulCIAJEgAgQASJABIgAESACRIAIEIFCEyCnstDoKCMRIAJEgAgQASJABIgAESACRIAIkFNJ1wARIAJEgAgQASJABIgAESACRIAIFJoAOZWFRkcZiQARIAJEgAgQASJABIgAESACRICcSroGiAARIAJEgAgQASJABIgAESACRKDQBMipLDQ6ykgEiAARIAJEgAgQASJABIgAESAC5FTSNUAEiAARIAJEgAgQASJABIgAESAChSZATmWh0VFGIkAEiAARIAJEgAgQASJABIgAESCnkq4BIkAEiAARIAJEgAgQASJABIgAESg0AXIqC42OMhIBIkAEiAARIAJEgAgQASJABIgAOZV0DRABIkAEiAARIAJEgAgQASJABIhAoQmQU1lodJSRCBABIkAEiAARIAJEgAgQASJABBQIAREgArJJ4NWrV1i+fHmZKn/q1KlC1Z8UFwN5NR0o0zdQgfj9/PkTkydPLlCe4hbeuHEjTE1Ni7vYIpXH46QiNikdOlpqRSqnrDLPmTMHvr6+ZVU9unTpgsGDBxd7/bLeLvkB+f79O6ZOnZqfSImnbd68GVWqVMmuJz0Z7169BXMrCIOihiHqOlRHcbxB4KXFIThWDqaGmsLyS+ugSHWXMJfSYkD1EIHyToC6dOW9hUg/IiCGQHBwMMyVzTC8+zAxEiUb7bl4lOgKuGl4/+IJ/ILjYGHvBDNNeRgyTkjOTs32SX/AdvY5dLFVEl1GoWJ5uHpgNa57B4OjVRsb/hpRqFJEZeKlxuHV6w9g501U1kbDujUhnze+AOeciM9YuGQdtJp5YnrvBvnmjIuLg3ZsLLaPHZuvXEklTt61C/Hx8cLiOYmReOXtCx2zGrC10BfG//zyFoExPDjUc4aGhF+Z5J9vsWjDIcRERqD33J1oWz33NSFNZzLtv1votegtbh6ZJdRB0kFJtim/7gcnN2PXzZ9Ys3UFDCUwePrkCa6e2iJJ5RJJf/7yHU5ffZ6r7Pjwb3j/X7AwTlXTADXsrKGmkPMuFiaLPShMu4gtTIoEaa/H8OAg6JqYQkKzgJf0E6sXLUdiVQ8sHNMhlwb8e/Fnqj56Tiqbdvtn43gkJCTk0glIR1xkJGLYcTh25Ar+GNAbKtzie9DCDnyKtRdZWDvRNU+9JX9atLpLlkvJW081EAHZICDpO1U2rCAtiUAlJSAvrwAFhbK5jVlyojqYbBxcNhHfTTqhe2NrvLiwHWPvBuHehX3I6Sq4j54J9SpFccVENbgcOgyegQ7pEZg7d7sogULHpcd8wJadl9GrZ0N8fXgKIRY90NRSHqcvHIbTji1QLXTJgIKBHeaP/w3zbuTtIIoulMVilV2bM3XnCuls/OO1Hl91bHFww2KoMMm85J9YOXM8Qq0HYCfjVEoKqmZOWL7aCc+OLcKPFN4v4tJ0JhWqOGLuhKq/5M0voiTblF9v8z4T8Pb97F8fRIhQisWSK7M2FfX9kZ6ajCdntiGqRg+4mMoj1ucRNm4Kw1+rlsBKW/rvm8K0iwg80kdJeT2e2LoR3ReshLkEU+TUzDBt9gjMWfNJpA5yzP0gX0bfv/y6fwnyGmje0Z3xLSPw+OF/gjfQOWW+eT/G12RtWKtG4MKNF9C3qYcuHVpCUymrrHT4vriHGw/fQEHXAo3q1oZJdTsYqrEQHfgBt289hp+3HM6fTxQUa1DVEU2drATH3ORI3Lr9GNCxRNtGtnh97zreh/LQwb0TjDW4eHr7JlK0qqNVAzvwZW8zsjy+bFNH4QPH0K9vceveU4Qly6Nh81YwUlWEjU1ViXXntFHksVgu6Xjz4DrYmuYIfPMQ6WaN0NZWAWcvPUAd155wqWEkKC4tIQovnz+Fz/sv4Gmawq1zJ1Qz1MiuipuK1w9u4MGLTzCp0xytHQzw5OUnODRxhZW+ClJig3Dz2k18/hGLWg1boE1TJyhnIpfcJtnV0BERKO8EJHyllnf1ST8iQATKFYHUr3jxowY2zesmUMuhdk2kKG+BXKaSqTE/cfPBa3CZbkS9mrk15yZF4OadZ7BxbgCf2+fgHyuPFh3cUbe6sVAwLsQPl6/eREiKMtNZ6Yqkr08RpWiGtk2yOyZCYREH+f24ixAXRrE0qqBH39/QpX0dvEx8jf/sO6GLkzLjRPEy33bw8OPLG7x4+RYBYQmwr98SrkxnSTGrr8aUxK/7+qUr8AtLhn3dJrAx1UcNpsOUK3CT8OjGbUSl8VC9bgvUNNPOlVzeThS0qqC2jQ1qWajhzOtw9K9viLeXjsPOYwjUuHbQlk/F01uSO5Pi7JLUkWVcWHx6dodhmghNYxtxxYiMl9ymgKTOpFRtytQeEfAOT3y+Q17DGG6tG0p8QyZS4VKM1DG3RxOn6giuz1znNZUFNXd2+R9WnHiElSNbCpwCsQ6EpiIjL7ld0lNice/GFbzxC4cdcz+4tqgv7Gh/93mCdwERcGjsBl32d1y9+QiGtZqhVT0boQMiCoc01+OTm9fx9osv1C+chz7/uRZLFU1dXWGgmnWzcphr6h7uPn0LdXMnuDcr3/egKA7i4rT1tbBnxDDYdpyOP8dNxLe7ezB3fTg2zewtyPLt/gEsv5SO1fPHQ5V5Szt/5FC0WnYFXe2Z7zotfViZV4HOVxYsLS0F8tqG2WxYimqwsDTFli3r8OGyDtSbDoBrzVhcf/AeAzrVgbGpFjbuPM04lXPBUlSFOSO7bc8BxsFaKygr4P5RLD37DbNmjIW5WipObF2Ev7xNcePIHIl1i7NXcrw89NXi0Xf4bKw9sx9+B2ZhzL/V4LXAE8v/Wo7aG9ZBnbks4sK+Ipynjz88x4Md9h7z/1qEZVtXQUtwybBxeNU0hFn9hpGjx+DD7WOYOv4Uqnadg2Zqikj48RyT/j4EzxmzML6rJu6f2YGZD7yxZtYAwfeApDaRbANJEIHyQyDrW7T8aESaEAEiILsElCxgrPQOFx77IDaZP1hUAaMnTAa/m8kPCiqagg5JwodreBLIyYjM/J+lpIaUL5cwesZqGDbsitEDO+P06ll4E5EhF+t/D5MX7Eattr0xtHtz/G/rQizaeQJmVQzz7WhmVcL/cR/35wroO7pi/NjBUPx+HTNXHUZuLbKkc/9lqVuhK+NQ5g3tOnfNtI2Nz5/8YNvUHZPGDYeczylsvZzj7QYvBUv+nAyV2u0wacJImCQ8wuSFh/MWh9SECJw5dAhxKobQ11T5Jb28RjTs9jtenziI9PR4nHkUjj+amWeoKqcg6EyePXpacJ7Vmfz31AHG7ZAchB1ZAxPBdcPvzJrk6MiCeVyhV8UMlubaOHssow7JpWZISG7T3J3J3m3tsJbpTMZxM2uQsk3BPELxf3ULZ+58grmZsVTXqrQ2lKZcdFg41LUy5tJlORDnDq7DlgXMPZpigpY11QUORIZO+bdLesJPzBo7BdG6dTBq1BCohz3EuLlbkJzJVtugChD4ANv37sffm0+jbqt2CH5xF5lfBRLNzu96rGJuCQN9fcYBssy8piygJnxTx8WFbX/hxKsE/D50NBqaJmHR0u1IkuZilahV2QvoVDGHec1WmDexFzSUFFDbbQi0o58xg2YzgqKaBljcBPh9+oDIdG38vfMoWlTLeKigqm0MB9tqMDCpBmdnZ8GnmqlutlEKqrBzqA1ORCAaey7E8E4NYOXkyjiU/NEK8rCysYW6UubjRQU1gawWf2gDP/BSsefsM6xbNRvVjbWhrGmEQTOWY1r/ZoJkSXXfP/Q3mjRpkufTAkef/BTkz+8/EzMLtOwzCo2r6sPR0Ro9Bk2GgY4hrA3Uhe1uYF0fjay18e75I3wO5cJGCwjJ/OHgBD/Hi9QW+LNvK2ioqcHFfTgGtakOEytb6KrK4+yeI+g9ZRosmVsnIjIeNVv3Q8O057jpnypQS1Kb5Kc7pRGB8kaA3lSWtxYhfYiALBOQU8Pcddtw+/xJLDq2FWDmHDbuMgi9W9USWCWvogUHR0ckvdfDj7x2Mh0Nc3MjDGg2GY1tmV9tJgzwcMCjLzFwNjDA2YMXMHnlCtTR5r9e0MOsv6Zg4PBVsK1mIpCV9J+oH/eQ3SuZH/feaG/8E0O6DcSXhCyPIaM0PYfOOLtrvtApFl+HElq6ueHjh8+4/50DM0dn3LjvB7jbZ2SRk4O2jhrCfgTgowoHNq6e2FEnKldxCcHvmaf0/8OwVXtQx0Q9V1p5P5FTt0Yr0ygcO3Ucyg1/hwYrLFPlrM7kvYzzvJ1JCYYJO5O+LEEnVpS4kaUtjMz0GMfg7i/J/M7mDK9reeIVMGH9cfRrbJYn/tdTQWeS9UXQmWQxD0SyOpNa/LHcUrQpj3lkcWPfcnzl1sPuNZ2KNPf2V+1KOiYNFw9vxTcjeaTGRyIozQCL/qqbUWlOB2LORrhYZryxsnLK1im/dnlycgfqTVyNns4Z83Bb9Z4I5aS/mbfdURhQXw/aVaxgY2WIY091sH/ZKMH9V2Pk8OzCJRzlez3aOcJUXw/2Ts6/DH/lRr7BzR822LC0q6AGnUZdMIsVg0n/SKhQhpIVFJVzPdhgLmNhMK3fB+vN/XHv4RPcOXsQH0LkMWfZQugqSz/A37BGPdTPvB6EBUs6SI8DR04XzPT77MDSRMfOrbLP8zlqMXAhHjOfEgmMw3t87Ww8iTNDu6Z1wAkOxNuvoeicWVl6XCwUjJmHIDkCfw2BL5nnQSGBeHViDx7neoWjCxukMRIZDnt+bZKjWDokAuWeADmV5b6JSEEiIDsE0lOTkCqngjY9hwg+zAQ7LBw9Hp8a7II9fxyRxCAHJabTkxX484Z4mW8JotgsGKtn9zrklPVhbCD9V1h+P+5yatY4cP1hVrUF/hvz9T6mLDiIZh07wVJPGc8/vkAiMp6yZxSmjOmrd8D76QM8v3UB21+9gkXzQZg2yETYwfvw2hvNqvEQEZ8MyJhTybexwx898dswL3j94wl8v1pghiWRoUidTQmdSX6HUFKb8iL84KdSH/GsCKQyr4PUsi/fkjC3mMtURMe+I+FhpwwlpayxBrmrKJQDwRTx/VsaavXNXtiJX2p1+xq47B8EME5lRmChjZurFA90MsXz/CnM9ZgWFgwl69zj8g2YN06m8l/zlF4xTy8cOYBWfwyGe89qzOcPRD4/hvknn8JrbOsMgxkPlMvNeq9ZUAYsZiRDGvPenhlxzHzY8eGIiM0sS0EXWtwQBMRzYKWZ9Z3Ow9fPn2FWwz5jWHSR6i6ortny3Nj3eB5RDxtWDMiIZFaS/Xgn+7dCuXpDyK9fjO8xLrDUUWGGzIfh+NF/YTEh4yFI62b18aJKH4xtZyMsND0tFRxW9u+cMIEOiICME8i6e2XcDFKfCBCB8kDA/+5uHI5tgwW9M4eKyinBUIOZV5LKeIZFfPnWtoEx9p1+hul9XZg3Pjx8uHkKTwMyxyBJYXxJ/rhfP3IRYzfvQEPtDMc5wpRZuOFytlLsny9w9L06Brd3RR1m8YYhzICzuePGILSfK0wyv4VdOvfFkqEOWDpzDrijl8LV3jC7ABk4UjKuj/MX9wg05T+Dzw75dCazhcQfldPOpDRtyjKwx+jp85Bwfx9mr2Dmq80aLEOOpRyzCI2iWIdSfINJTnFuaIzzV97DqWftTOF03GbmUzf7rZfkzFJKiL8emZfMPC64Ioa0KletBfa2Y0jhNhEsOsWv6v2DW/iebiVlrWUsxonDqT17EcisCvvy5WOsW7cOOlZ1MaRnG8aR4+LB+WPMvO9nOH//E7q2sIffk+t4/uo1br0JhJuzBf578i/u+8eglUttsJLDcPHcbQz4a53QKCUzByh7z8GJCzxocGPx+ulTWLYdgUHtaiL66wscOHdHUN4Gpl45psbm3QfDxTpziCzjOFqphmDHqUsw54XjztNPCPnpI6x79Pj+mDZpIlq6d4apOg/vmAdw0douWGiXMdojv7qFCoo7EMulJe5d+RcvH8bgS0R7JjcXNy7/i67OfcCLD8S/N19hqKsNjNg7cOScEYwU4/GYWUjINywEKXtPYppnH2gqGGDu/KFYPGcylPX0EBWdijYduyJrHIrLHxPw5K8ZWPq+IRrUMkNYwGfcffgeE1ZthZMRS2KbiDOJ4olAeSQgx2NCeVSMdCICRCB/AhcvXsTtk7cxosew/AVLKHU4s5jBQ2bFvJzh641tGL3nHTq0agpHayN8eXkD/6Eu1szul9mpOYBnftH48eYmYkxbw4EZWmfb2ANdmtZAUugnLJk1FUFmv2H1vMEwYH6WN0wfhZc6XbFtwWBmaFQaLu1Yhct+SdBAAlSsWoET+AQLVqwWDCvk599z9BLYzGI31648RvtOrpBTNsJAz34w4M+ZYub7bWJ+3OONRP24S36+xktjhnfuPoCXz24g0qg1Gtd3xIjfOwgWW/h67wA23UmAR3N7BP/3Fh98mSGTX7jMHND5aMd01tI+X0a7KScwqJ8Hqplowf/dPXxIssXquQOZiXs/sWvdUnw07oONY1oj2u8W2v82E73GTMe4EUynJcfbrY8fP2L9lCnYOX58Tuyldjxxxw6MW7MGdnZ2gjrjfr7DxJHTYdbWA/0HDEctY1WE+z7Cwf0HcSVAD3u2LYalFrDjr3Hg1ukq7Ez6+73EmIV7mI6sGdOpEn9NCCpJDWHm381B3e7MsNo8HVmJbS6BTH5tCmZI3soZ02Hesld2Z/K//2Dt+rugM6nsJ75N+U3mffsMFm/7FxuO7oOpAhs7p3bHmYhamD5louCayKmaWztXXGdWWy2LwN9S5PjFx1i7dq2w+gi/J1i2cBFizdugtpEqOv4xDLWqqAnTsxyIq1euoF2Hzr84EBLbhblHty+aiVDtOmhU0xw+j64iyaIL/vJ0Y+bXpeHq8d24e/sG/NXqo6GlKlRNasLzj04SFziS7nqUx5sz63HIVx0d61kiyP8DXgVwsWDJNOgyDffx+l5suhoE93YuiPr6Cl/jU/HhzlcMXfg3OrlYCxn4+Phg1Dwv/DbFSxhXmgen14/FgTV/MqujZr8BK47601MT8JGxLUleB3Xq2IOZFpg7cJKYvTBfI0FOE45ODszczIwHabmFxJwxbfvx9Sskq5rAuWZVwRvLXJLMm8yvH70RnqaC2rXtoJF3I+Oi1J2rogKeMHp/fvsGUVxN1HeuCUkm+5xbiScGwzGimYGwoqSoILz96A8DSzvUsMiOFwrQARGoAATIqawAjUgmVE4C5dGpzGqJyB9f8IFZvbGavSPMDTSyoov3Ly8Bs6cvwBLGycnb78mvopL6cU+I/IF3HwNgZueEqmI2B4/44YcvAWEwreEAK2PG2ypgKG9OpdTqS+pMSiqoHHcmi9qmfNPLm1MpqTmKKz0h4gd8/EJgW8cReur8iaqlF2KC/ODtGwxjZrirbZ5OPiclDt7v3kOTWQXXJudiNDnUq6hOZQ4T6bAABOKjwhCblIbk6B/w8jqFP9euhgWzFQsFIlCZCEh+PF+ZaJCtREDGCIRFhuK/wP/KROvouKwBPr9Wr29uixbMp7gDj52C4NAIwdwc79snoe7Ys0AOJV8fNT1TNGlmWtyqQUPfHE2bm+dbroG5DfifooRIZtP1j4GBRSmi0HnDYmMLl5cZBl2zXuPC5eXnYhb4cXTJOUe18EUVKCejt52zS75ZiqNN2RwOPn4um/v445eyqZcPVcPAHI2ZT1kEHVMbtGA+ooICs6BYXZcmopJyxSXGRiD028dccaV1khATXlpVUT0SCfDw5vZZ3PsUDm1ja0xftQKm5FBKpEYCFY8AOZUVr03JokpCwMzMDFwdHrNC4okysbhe0/qlXm9aVAAOHzwDjrwKnFt2xbwmGavKlroiZVShlpYWVK2tsfRh7mHHpaWOArMNg6ZmxrYSpVVnZaindes2WLrpSJmZ2qlTpzKrW1Yr1tHRgYOZEn5cW1omJtQxV4aGRgmNAikTi2S5Ujm06DUSLWTZBNKdCBQDARr+WgwQqQgiQASIABEgAkSACBABIkAEiEBlJUADvitry5PdRIAIEAEiQASIABEgAkSACBCBYiBQpk5lcnKSSBO4zLypmPhEkWnM0nBIZDabTeWki0mnaCJABIgAESACRIAIEAEiQASIABEoLQKlPqeSlxqLZ89ewf/DQ8w/8BrvHp2Bapa1zGbTZ3eswJNQDdQ0kcfLj1EYP2cWbA0zljKP+fYUC1cdgX2DBsxS32+gWrMbJvRrVeCFOrKqo79EgAgQASJABIgAESACRIAIEAEiUDQCpe5UgpvO7B2ni2aONgiJfZpL+6+39mDDQxXcOjRVsH+R673d6DNpHe4dnQcFbgLmDJsA9x134G7DOJm8Ppjk3grnna+gR63MzXVzlUYnRIAIEAEiQASIABEgAkSACBABIlDSBEp9+Kucqh5cXJyhriSXxzYeLhw9DBuXhsINcU1qOSLi+kl8iOci2f8RzvqqwKlq5gbMcipwqWOAg8du5CmHTokAESACRIAIEAEiQASIABEgAkSgtAiUulMp3jA23n/xg4ZmptPICMqrqkAl4RuzDx8bIQF+iFZWhXqOXc7VNdQQ8LFs9ogSbwelEAEiQASIABEgAkSACBABIkAEKg+B0h/+KpYtD8kpyVBn5fBz5eUhz0tBSko6UtOSwWPScqRCnklPTRG3oE9GRffv30d8fLzgJJDZMNzf3x8tW7YUauHm5gZFRUXhOR0QASJABIgAESACRIAIEAEiQASIgPQEypFTyYKWhiY4HI5Qex6bAw5Lg9ngVwFq8ZpgpTPnPGEy2Gw21DV1siNEHLVokb0d7b179/D9+3d07txZhCRFEQEiQASIABEgAkSACBABIkAEiEBBCeR88VfQvMUsr4h6jrUQGRotLJcTE4s43RqoZaEEE5taMEqKRVS2z4nI8GjY13UWytMBESACRIAIEAEiQASIABEgAkSACJQugbJxKnnpiI2JATctBdEJKUKLuw4bh+8PLyOezRXEvbp7HfUHjEF1Zs8RRTMXeLZTx7UHAYI0TmIwbr5nY1z/tsL8dEAEiAARIAJEgAgQASJABIgAESACpUtAjseEUq2SE4y1s1fjOxtQUmQhLY2Nqg3c8efA9gI1vG8ewPHH0bA1UcB/oYqYMn0UdDOnPHLig7B+7RZoV6uJ6K+fULurJ7rUt5Jaff7w16tXr2Lp0qVS5yFBIkAEiAARIAJEgAgQASJABIgAERBPoPSdSvG6lHhKRXUqE2PCEZemAGMj3VwLGfE4qQgJDYeajiG01ZVLnC9VQASIABEgAkSACBABIkAEiEDlI1COFuqpfPCLbDEvFWe2LsGrJEu4WAGXn0Zi+fIZ0FViITn8I/5efhAtO7VH8CsvKNYfjCHt7IpcJRVABIgAESACRIAIEAEiQASIABHISYCcypw0ZOw47v0VzD0RCO/7i8EfIZzm0xub//2Ev3rWwvnNf8Giy3p0aWsOtKyKLp1noHub09DJsc+njJlL6hIBIkAEiAARIAJEgAgQASJQDgmUzUI95RCETKokJwc58Jh/mYHFxdPHr5kTDp4/fw9DXf2MBAUdyEd8hm9CxgJIWeL0lwgQASJABIgAESACRIAIEAEiUFQC9KayqATLML9W7U5Y2OMZ9py4jNr6XDz/GgMF84xXkRxuOhiPMyPw//K44KQL3c8y1JqqJgKyRSAu9CvuPniOuJR06FdzhFtTB/DvMnHxsmUdaUsEiAARIAJEgAgQgaIToDeVRWdYdiUwC/fWbtsbQ3t3Qst2nVBVQwWdOjZj9FFALVsrhEdGZujGiUOKugWstGjsa9k1FtUskwS48diwcR/a9/od/fv3A/vxLpx/nwCIi5dJI0lpIkAEiAARIAJEgAgUjQA5lUXjV7a506OwZMpU3PP+gGsnt+Or6W8Y3tJCoNNv46fj7aWj+Oj7H64eO44GQ6aD2aWFAhEgAgUkEPr8DIZNXwufL1/gF6kIa2MVQQni4gtYPIkTASJABIgAESACREDmCZBTKctNqFAF+y+cgF5KAhzcBmPtvKGCBXv4JunZtYPXohFIiAyFdbuRWDrKVZYtJd2JQNkQYGli5vIViH1xGu0aNsIbBXtYajJfm+Liy0ZLqpUIEAEiQASIABEgAmVKgJzKMsVf9MqVNfTRoJELTHXVfylMSV0PDRs3RQ0zvV/SKIIIEAHJBFJ+PsX8Ax9x5vZjfPn0CAafDmCG1w2Ii5dcIkkQASJABIgAESACRKDiESCnsuK1KVlEBIhAMRFIiQkFdEwEC/NomdTEnFmToKMoD3HxxVQtFUMEiAARIAJEgAgQAZkiQLPsZKq5SFkiQARKk4BObQ+Mc9mDZSvXo4qOMlIVTPD3GFdoyPNExpemblQXESACRIAIEAEiQATKCwFyKstLS5AeRIAIlEMCcnDxGMF88qomLj6vHJ0TASJABIgAESACRKDiEyCnUobbmMdsKZKamiq1BYqKipCXp21FpAZGgkSACBABIkAEiAARIAJEgAhIJEBOpURE5VcgOTkZ2rr6MLetJ1HJmNBAnDt9GC1btpQoSwJEgAgQASJABIgAESACRIAIEAFpCZBTKS2pcipX3akVRq2+IlG7a4eWSJQhgcpJgMdJQ2hoGJS1DKCrmbEHYwYJHuKYLWkSOEowMtYDfVlUzuuDrCYCRIAIEAEiQASIgCQC1E+URIjSiUAFJpAU6oOdR27DwsYaEV+egW3ZCeP7NAbSE3ByhxcilIzBCX6DKz5seO1YBysdpQpMg0wjAkSACBABIkAEiAARKAwBcioLQ43yEIEKQuDdtcP4ptwGIzu7QaW9EybP2AEu41Sm/3yFxfue497TU9BlDYby2DZYfuwRdoxpXUEsl86MuLg4XLx4kRGWkyIDD926dYOampoUshVLJCk2ElGJ6TCuYgTFPBtVpSXFIU1eAxrKeRIqFgKyhggQASJABIhApSZATmWlbn4yvrITqNtpKDZ094DDfmu0c6yK/nNWgN/1Z1m2xNsnzcBiTnjsOPj4x6JuH6tKhysoKAizl25G066jJdp+99R6wZzlyuVUcnHnnz34HKcBMx0e7t7/jAkL/oKlpjzYkQE4du46Lu3fiK7rn6BffQ2JDEmACBABIkAEiAARkE0C5FTKZruR1kSgWAiEBnyGZbsxGFhLBauXrsbCFTVwccc0qDLOJItZKZjHTsDBVXNgOWwbRre2KpY6Za2QKla10bDDIIlq//fmjkSZCifACcf+A5fw55bdcLTQh2bELDz6LxGWzlpQ1LfCoGGe+HFtd4UzmwwiAkSACBABIkAEchOg8Ui5edAZEahEBNKxY+f/MHbuFLj3GYM7L9/BOfwe3idwBQzS4kOxd9NW2Py+AFM76+P0pTeViA2ZKhUBBSMM7FoLHerVwh9DR+J8RG30ZBxKCkSACBABIkAEiEDlIlCgN5XJ0T9x99YN3H34EhHxaTCqaos2bV3RzMUJqgUqqXJBJmvLjsDPF2ex9Vog7C30oKysKJgZV6OBK+paaeD57Sv48DMBGtp6aO3mBn21ynYRy6NTC3vs330CPVvUQTIzXNGwdXfU0WKBG/cdQzu54UGYHFR37UVSXCxmHnlVdg1JNZdLAjx2PL4Gs7Fix17439iPPduWo0Wn9ujuZFwu9SWliAARIAJEgAgQgZIhIF0vmsfG47O7MG/tISgbWMDSwgzGRrqI8H+DdfP/wTKtWli1fgUaWOmVjJZUKhEoJIHPb14gKCQF8qkRkEuLw/1XYdjboSdubJuMU2wP7JjcDWGvjmP49G34Z+sEwXzCQlYlk9maD5yJejHB8P7gDz1rF8xuZZBhh5Yljjz8LJM2kdKlRyDyzUU8U2+HXT3bAz3dMeLebkw5fINxKvuXnhJUExEgAkSACBABIlDmBKRwKtNx55QXPis2xJUHY6EoQuXU2B/YunEd0ofORCMLTRESFEUEyoaAeZM+2D3CEQrcFJzZtgm9Ji1DNW1gy7/XUXfWXIFSRrXrIvTqEPinTUD1SrhjhpqOCRo1NSmbBqJaZZqArm1jaO1dj6sP9WCuJQ/v95EYMniowCZuYhiu3ngAn6BYhNz4B6a8RmjdwE6m7SXliQARIAJEgAgQAdEEJDqVaWG+gF0fjHIS3+lU1jbHn/Pn4vbNp4BFa9E1USwRKAMCtrUdBbV+uLQLwdV7oVcVVcF5J48OOP/uHbitTBD45i2CIqIQnshlnEqaZlwGzURVyigBee1qWLttHb6+f4uwJBbch02HZubWISx1I3Tq1lPwkVHzSG0iQASIABEgAkRASgISnUolI3u0NsoojZOahKjoaMQnpkBZXRsmVQwgn1WRnCratGuddUZ/iUD5IcCNw5otlzDjfxOEOrUbux461/+HAwcOwtRSE6amZjDXJIdSCIgOiIDUBBRgXbs+rKWWJ0EiQASIABEgAkSgohGQqhedHBWAJeP7wNRQB8Ym5rCxsYGFiREsa9TD/G3nkMSpaFjInopEgBP8Dvd+yMFMOduqtxc24VKYGYYOHgiDsE9wGjoF5hIfsWTnpyMiQASIgDQEUuPCERqbmo8oDzHhIYiMS85HpvwnFd5OHn4GBiI9Y9FpEYZWDD4iDKMoIkAEiECFIiDZqeSlYguzmbWp22g8/fgDCYnJSEtNRUJsJO6c3Q3z8GtYvPtmsULhclIRE58kpkweEpmVKFM56WLSKZoI5CHAUkPTVk2hkuNqt6jdGMpBz7HTaxMepjpj83SPPJnolAgQASJQdALvr25GVWZUj6lFVdSwtUXVavbYdz9AUHD0t6eYM3M+LjMrqq+aMAjX/RKKXmEZlVBoO7mxmNCpJgwMjVCtug1qVLeCS585SGaczIrEp4yahaolAkSACJQaAYnvZtIj30G98UQM69Ygl1KKSkqoUVuX+Thhz1YvpMM1eyhsLskCnHCTceXEfnwMA7RUUvHpSyi6jpmGFjb6gkJimB/ghauOwL5BA0R9fQPVmt0woV+rotdbABVJVPYIKJjUw8Gt9XIprmfdBDOnN8kVVxlP7t69izNnzkhluqmpKWbNmiWVLAkRASKQQSCSUw3f4uJhzKxyF+JzA6eY7V6HtrACjx2JKSPnYcqxy3DSU4CdWjKUNYQTSmQOX2Ht5CUGocvcG/jnj8YAJwGHt3ihwcDJUEmPxJgKxEfmGpQUJgJEgAgUkIBEp1JOURlJsUFii+WxkxCfVDxvDb/fP4R76Q2wbFJDQX3siJf4Y8JaNDu2DCxuAuYMmwD3HXfgbqMG8PpgknsrnHe+gh61dMXqRwlEgAiIJ/CGWaToJ8sODs26ihfKTDm5ogc5lRIpkQARyE3A7Y+M1XBTIt5j59UgzJ06SCAQ//E+7oUro8Olo3ibmogf8aoY0yrHGP3cxZT7s8LaKadZC8P+4JvHw6UDW2DZfRzs9ZUQ965i8Sn3DUgKEgEiQASKSECiU8nSrg3toHUYPfMVXJvUgba6ClhycuBy2IgO/4Hr5/6H2kNWF8vbwnhmSO3pnZvQt8UGOFbVR1JMBBS1Mva+TPZ/hLO+KphTlXEo+UFOBS51DHDw2A30WNw7I47+JwJEoEAE5Jh7WcfIQvCRlFFZRUOSCKVXQgKdO3dGbCJbouWpKYmYNmUi+vbtK1G24glwcXD5SjSbvFv4W5mSFI/oBA7a9R0EQ+aX+N+V/TFrpyV2TGgrw+YX3s6kgHs4/kYNB4dnbEtWMfnIcNOS6kSACBABCQQkOpVgfgI9F26H1dHt2LFrI3y/BSE5LZ1Z/VUL1WvWw/BpG+HRuIaEaqRLrtV+GDpud0OD2rUwatJYsFLlsHzlbMGG9CEBfohWVoV6jtFB6hpqCHj7UbrCSYoIEAEiQASKnUBodAoGrLglsdy3d08jPCJEolxFFOAl+uHQ3WCcWZm9Ea6elR1sjLShnjnXW5X5PQv5GS7T5hfFznv/7IWGwwih/RWRj9A4OiACRIAIVEACUjiVjNUsFbgNmIw2vUeK31KkGODIKWihy0BPpJs+w80DGxCuYodWvQfBqpEVUtOSwWOxBA5mVlXy8vLgP/3OL9y7dw/x8fECER8fH/j5+eHixYvCLO3bt4eiIjPZhQIRIAJEgAgQgRIgwA7yx1eOBrRy/OIqVKmPyR2NsOv0LbSxUcS5p2mYtdS9BGovvSKLYucn7y/Q76wjVLYi8hEaRwdEgAgQgQpIIMdPnHjr+FuKrP1rBjYdPIvw+KxhTnIwtXHGsD//xmzPblCTqiTxdfBTbu6Yg+vKvbB19wSkxQVj/dyxGNG7Hxw/PICamiZY6RxweNllsNlsqGtm/whlp2QftWzZUniiqamJuLg4uLvL9g+30CA6kEjgy5cvwocKkoSNjIxgYWEhSYzSiQARIAIFIqBUrTlunrCHSq5c8ug/bzPCAz/DNygJS3fvg6ZSjiWqc8nKxklR7By46CC4utY5DK14fHIYR4dEgAgQgQpHQLIrmHNLkdlbYKSrBSUFFtKYN4RBgf64dWYPs6WIBpaPdi0iHDZOX3gLz9PrBeUoaZlg5uaTiA1sgQ8/OOhkUwtGSbGIYvbE1M8cAhsZHg37us5FrJeyV2QC48aNQ6Jqzo6KaGvjokLRoVF1rF27VrQAxRIBIkAECktAQR32duoicxta2MGwojzLKoKd+haip9FUKD4irwCKJAJEgAhUDAISncrS21JEEa0bW+Cffx7DaVATwWIGKTE/EWPYBE1tlKCo4ALPduq49iAANVytwEkMxs33bEye3bZitARZUTIEmIVoek/dIbHsbx+fAb4nJMqRABGomAT4G9D/QBUzC8izRFuYlhSHNHkNaCiLERCdjWKJABEgAkSACBCBSkBAolNZmluK/D7PCyq7N2H+4gcw01NBTCIPM1cuh4FASyXM3HoE69duwc4fNRH99RMGrDmExmayuwR7Jbi+yEQiQARkgUDmBvS3g9Wgo6MFBXCgW78f7h5fBoXoABw7dx2X9m9E1/VP0K8+rQIsC01KOhIBIkAEiAARKE0CEp3K0txSBMzQmW6jZ6ObGAIKmqaYvmCZmFSKJgJEgAgQgcIQELcBvSr/paS+FQYN88SPa7sLUzTlIQJEgAgQASJABCoBAYlOZWluKVIJeJOJRIAIEIFyR0DcBvTlTlFSiAgQASJABIgAESiXBKRwKhm9M7cU4W8rQoEIEAEiQAQqJoG8G9BXTCtL16pVq1bh+InTUGZWMM8vpHPYaFDXAV5eXvmJldu0nTt3YvfuXdDUEL0gUU7FTUzNcfjwYUHUo0ePMH7CZIl8+MJJcZF4+/ZNzqLomAgQASJABMoJAemcyvyU5bERG58GbS3JPyT5FUNpRIAIEAEiULYE8m5AX7baVIzaQ0JC0G7CXphUc8jXoJTEODz06pevTHlOjIiIwOq/J6FVcxeJarbsMlwok5iYiCrOXeE2aJ4wTtzBjmntxSVRPBEgAkSACJQxgaI7lexv2LbtNWbN7F3GplD1MkGAl4Z3jx/gv5AopEEdbu4doMesJhkX+hV3HzxHXEo69Ks5wq2pg2AFYJmwiZQkAhWEQN4N6PlmcRPDcPXGA/gExSLkxj8w5TVC6wZ2FcRiMoMIEAEiQASIABEoDgISnUpeaiyePHmNVJ7o6tJjPiCYYyI6kWKJQC4CXJxdNx0fLAdhTu822DG5Jy6ZN8CABirYsHEfZi5bDP5avhfWTsJ57aXoUZtWmcyFj06KTICTmoSwyHgYVjGGomBnDMlbaRS50iIUUNr6/roBPTP7Qd0Inbr1FHyKYEoJZeUhJjwU6cra0NdSZeoo+fbM2yapceGI4WnBWJtWIi+hRqZiiQARIAJEQAYISHQqgVR4zRuDTxwdZpn5X0N6Sgxse6/8NYFiiEAeAuzQl1h88hsO7WfhwYOHaDNtL2zNdZlXIfEIfX4Gw6brYLanB/wiFdHWWCVPbjolAkUgwE3BuX0b4BNnAEejBBx7roDDG8aDlc9WGoKVT4tQZZGylpG+4jagL5ItJZQ5+ttTrPa6gDpNmuDN//aj3fx9cLPmYEKnmhC1NUqR21NMm7y/uhlNB62HnoEe1FWVkcZmYcHBKxjawqqELKdiiQARIAJEgAiUPwKi/MRcWsopG2Hc6BFIbDkJrhYixJM/YMmGj7ny0AkREEUgyv8Tvof/RECKETq7aOCv0YNRb9JOdHcywszlKzB2+nK027kEHSatxhBN2mBdFEOKKxwB7wsbcDzACscW9wUn+hsS1QMEBeW7lUbhqiqWXLKmb7EYXYBCeOxITBk5D1OOXYaTngLs1JKhrCEPXuJ3dJl7A//80RjgJODwFi80GDgZRXYoGd3EtUkkpxq+xcXDWBEI8bmBU8w6MuRQFqAxSZQIEAEiQAQqBAGpeu7VHBzASk4TbbCiAeo5W4pOo1gikIOAqromNIzs0K6uGaCkjdYNjbHz0DWk/HyK+Qc+4sztx/jy6REMPh3ADK8bOXLSIREoCgEezh45yczdTcDBQ4ewdddhaFpUA//LL2MrDcYBYYZNXjqwBZbdx8BeX6kolRVDXlnTtxhMLmAR8R/v4164Mj5cOoqDe7bhyocEmOoql2B7im8Ttz+GChzKlIj32Hk1CGMHtCugNSROBIgAESACRED2CUjlVBo7dUAbWzXR1iowb506NRSdRrEFJMCfHxSCyLhkYb7E2BiwuRmnyfGxSM08FgrI0IGWXRM00YlGYDyH0ZqLoMAo1K1nj5SYUEDHRLAwj5ZJTcyZNQk6ivIyZBmpWtoE+PPagoJChfcGv37x90o6s0J1HJTNHDBo4EBMHNcDywcNwvccz8myttJoaZX/tg+lY6es6Vs6VHLWkpIUj+gEDtr1HYRBw8fAMfU6Zu28IxQp/vaU1CZcHFy+Es369KUFxoStQAdEgAgQASJQmQhI5VRWJiBlZSt/ftCcmfNx+eFLrJowCNf9EgSqHPu7H6pZ28KlWSuMX3IAbDELJpWV3gWqV8kYm7fOw9ENa7Fl/XIEWw/Fgn4NoFPbA+Nc0rBs5Xrs3OGFo6/l8fcY1wIVTcKVhAB/XtueFVjpdRQvbx/D4D+3MI8nMoL4e0UBzo61oKOjJRCUU1QBKykaUTme0GRspVG3nECUNX1LH5uelR1sjLShnvkLpqqhhpDgcKEixd+e+bcJL9EPh+4Go45JWb/lFiKgAyJABIgAESACpUpAxCTJUq2fKmMIiJsfxIejUrMzfNeMhpKCQrl6Ap4Q7o/7T70Rl5AEk5pN0NKpaq62jA14jH23EzF5aO6hYPrVm2D+/Ca5ZJlBiHDxGMF88kTTKRHIQ0DcvDa+WH73SrexszFh0UG8sO6P4BfM4i7DZ6FOjnm7orbSyFN1qZ6Wtr78PQZbtmyJKsYGEu2MjIrByZOnYGdXdtuKKFSpj8kdjbDr9C20sVHEuadpmLXUXah7SbRnfm3CDvLHV44GtOgXVdgGdEAEiAARIAKVi4DUP4HsMG94nf+OscPcM5fizwCVFPEJe/75gAkje1YucsVobdb8oA7M/KC3qYn4Ea+KMa0ylqdPjw/BySOHwUlNQIpyVQwb6FEsi04URf2kkLcY9edOrNq5Cbqhd9Fr/g40PbpMuDowOy4Qm5mFd+4reDBOZVFqorxEICeBzHltjmMFcyOjg7/DxnWgYG4kXyq/e0WzahPs9qqD994+sGnnia1VDXMWDFFbaeQSKOWT0tY3PT0dtW0tcerAJomWTp+/CikpKRLlSlZAHv3nbUZ44Gf4BiVh6e590FTKHnhTEu2ZX5soVWuOmyfsQWtWl2yrU+lEgAgQASJQfglI7VQqGtVC1djdmL4hDasn9xA4lnyHcuLI+Ri8Zlf5tVAGNMs5P8iQaZF/V/Zn5gdZYseEtug5Yio0dZhtN5iwdVR7bDG0w/TOtmVq1f82zoeZ60T88H6CAJY+/jmY7VCCnYATRy6j82/ueHC2TNWkyiscgZzz2hozK31+QAuXQajz+g4smVGHku4VBWUNODXgL8rzayiPW2nImr6/Ui35GEMLOxha/FpPSbWn2DZRUIe9nfqvilAMESACRIAIEIESICBuxGDYV288fP0RicxIQp3qDdGpee1SG+mY/WhXosHy6D51HVpxbzOO5f8QE/YREzwzHMoW1joSc5OAeALi5gexfzxEp99nIGvZHi1NBfj/YBa1KdOQjldvPsDv81fUatgMlumv0W/c6swFhDi4efow6vQYCENluTLVkiqviATEz2srn/dKRWwDsokIEAEiQASIABEoSwKCEYOT1sCxtTs8Ghph+cod4C+BifQoTPYch+ptemHAgJ44PKkzzvlkrNFSGvpK/aYyQxl59Ji2DikLhqGh23fs+t9ZkENZ9GYSNz9I0TgVA91q4cWzV1BLDsS1MCss/btp0SssUgly0NXShnHrtmB8XGg2bI2ovu54lzAVhu8O47yfHNpp3MCr9+8Q/k0ONx69Q9umjsIhikWqmjJXegLi5rXJq9iXw3ul0jcXASACRIAIEAEiQASKmYDYEYPyuli2fTdMdOQRE/ge4Qo2sDUtvYkZBXQqgaQIX9x4m4S+7W1x4d97aDaxK5g9nykUiYC4+UEaGDV1HHy9vZGo5Yy9B7uVA9YsdO7VBdvefwY62yAlOhRc05qoqsaCUfMh2Ng8A4QP7x10vhuiHeNQZoXo6GicP38ecnKS32JyuVz88ccfUFbOmFuaVQb9rdwExM5rU9Qvh/dK5W4rsp4IEAEiQASIABEobgIZIwb905kRg4NHIubZfmbE4DUc3zYdyiw5WNWojgcXDuCfi3fReshIWGQtk17caogor0BOJX8O5QTPvzBk7W7mDaUGTi6bgFmb5LBiokc5cHZEWCdjUSLnB8kpoYZj/XJlSb3es9FxxyZs9PqGqOAIbDq1B0Y5riS/J+dw7GEMnNViseXodYzv5ybQ//v37zi0fj1Gdewo0Z7Fx4+jS5cu5FRKJFX5BMTOayuH90rlax2ymAgQASJABIgAESg5AuJHDDZQSYJvYDSaegxGc49B2OzZCtNS9bBrckY/vOR0yig5hyuQf1WcuABMYhblGbJ2l3DIa585mwHGsZy/QwUrRpWOwvlrSamlQkBOBb1GzxBblU3jbljKfEQFe3Nz9G6e+TpTlEBm3P8eP84nlZKIQMEIPHnyBPv27ZMqk66uLlasWCGVbEkJ8d/oX7x4Uari+Vt7/Pnnn1LJVhQhPz8/rF69WmpzvLy8IC8vL7W8KMHly5cjICBAVNIvcV09PODOPBSjQAR+JcBDTHgo0pW1oa+lKkxOio1AdBJgzGzro1CA1S6EBdABEajEBDipSQiLjIdhFePcO1RUyPtK/IjBaG9mocyJl/Hu/l6o8ThISkmHmmrpjfiT2qmUV9LBgp37YWaQc4U7BfSZswXNAst68ZhKfCeR6USACEgk4OvrC2tTTQzt30uirEffcYxM2TqVL168gJN+HTjZOuWrL4fZCmThkUWVzqkMCQlBYmACxvQZnS8ffuLkNX+CP5y+qE7lJcbJP7NfsiN78+5j8NuPnEqJTVPpBKK/PcVqL2af3CZN8OZ/+9Fu/j642ajh+v41eJ5sicbVWFh3JwBzFk6DvjJ5lpXuAiGDC06Am4Jz+zbAJ84AjkYJOPZcAYc3jGfW8eBW6PtK7IjBut2wdUwE9mzdDiSHgd10BlZ4tiw410LmkNqplFPRgZmKqFrkYWZhKiqB4ogAESAC5YaAkYE+jAz1Jeqjrq4mUaY0BPR19MH/5Bc46YL13vITqbBpaqpqEvnwjVdXKZ72VFFRlur64V9jvj/iKyx3MqxwBHjsSEwZOQ9Tjl2Gk54C7NSSoawhj/SIN1h10heXLs0QTCPi+Y3C+rPeWPJ7/g+UCqcF5SICFYuA94UNOB5ghWOL+4IT/Q2J6gECAyv8fSV2xKASOvQbgw5l1MxSO5VlpF+lqJbD4SAxMVFqW7W1taWWJUEiUJEIJCUlgc1mS2WSgoIC1NVzjqyQKhsJEQEiQASKnUD8x/u4F66MDpeO4m1qIn7Eq2JMK2VEvmZWaJTXF65LocM8lHj17B1ATmWxtwEVWNEI8HD2yEnoOY7FwUOHEB38HTauAwW7DYT50X1VFq0t0alMC/+Mcy/j0atjg3y3hUhPjsLZKy/Qo0f7fOXKwsjyXufDhw8xaEA/2FSzlKjqkxdvkJiUtXOlRHESIAIVisD06dPx7No1aKnl//YpJS0NxjVr4p9//qlQ9pMxRIAIyCaBlKR4RCdw0K7vIBgyPa9/V/bHrJ2WWFA/Hci1ILoc+A+aKRSewJOze/EpzQDGGnIIC0uCx8DfocdMqY4L/Yq7D54jjplnpl/NEW5NHUptU/jCW0M5xRNIR2x8HJTNHDBoYGPwEj+ghcsg1Hl9B4pcuq/Ecyu5FIlOpZKhHeyxH4s3vcfA3h6wNtHLpQ2HeeL2+fU9nLzsjaFT/ySHMhcd6U8G9e2GxfMmS8zQsedwiTIlLRAWFgZ/f3+pquFvCeLs7CyVLAkRAWkIHGMcSxvT/Ifch8fGYtSZM9IURzJEgAgQgRInoGdlBxsjbWSt7q+qoYaQn+HQt7CGcuID8MdfKDKfuKgo2NauUeL6VOQKPnm/wqsQDpQNa2Cw5wiBQwluPDZs3IeZyxaDv2zJhbWTcF57KXrU1qjIKCq4bQpwdqyFrzpaAjvlFFXASopGVCoXtei+KpO2l+hU8rWq03EINPXPYlS3FvieqgZTZnUyDRV5xEZHIjAwDE37TMLmJTOgo1QmNlClpUyAvzLlvi17YW1uLbHmNwFv4e3jLVGOBIgAESACRIAIVFQCClXqY3JHI+w6fQttbBRx7mkaZi11h5KFCoY1O4ETN16hkVk6zr9kYfLaJhUVQ6nYpWBki9HdmyIqjgM9Nb6rnhFCn5/BsOk6mO3pAb9IRbQ1FrlQSJY4/ZUBAt3GzsaERQfxwro/gl8wi2ANn4U6mizIazal+6oM2k8qp5Kvl1XD7rj6zAMBPs/x6IUPohM5MLK0QcvWLWCsWXrL1ZYBI6pSBIGebXvAvaW7iJTcUZ4rR+WOoDMiQASIABEgApWOgDz6z9uM8MDP8A1KwtLd+6CplLHC66hFW/DT9x0CYxSxZNtWqGf7QQJKibExUNLUEWyVkBwfC5a6NrPJeTZAcdspZEtUriNjVTlEK1mgoUMKJg0fhJFbDqFeFU3MXL4CY6cvR7udS9Bh0moMYZwPCrJNQLNqE+z2qoP33j6waeeJrVUNMw1SgKT7SpYt568w/u6dN1is/K9hHo8Hc3MzuLm5lYq5UjuVGdrIw8qhseBT0tqlJMaBw1KFhmqeb1fwkBgXBwU1DSgrFG3fsZK2gconAkSACBABIkAEiEAWAUMLOxhaZJ1l/ZWDWQ0nmGWd5vl77O9+WHDWD6ZmJqjTvBc2LpsoGMIJsdsp5CmgEp1ykyLAqVIXjeyMwe/gtrJJwbbTj7G5hzrmH/iIM7cfIzX4IxZOGokZXpbYNaV9JaJTMU1VUNaAU4PGIozL/74SkUFmok6ePIk3oSows8l/lejU5EREn1xXXp3KkuedEPYFWzbuBNfABtrsIMQZtMDMYW6CuZoxzB5PC1cdgX2DBoj6+gaqNbthQr9WNNG65JuFaiACRIAIEAEiQATKgIBKzc7wXTMaSsyK1jkfpYvbTqEMVCw3VXLj/LHzwCW4tm8OpCfj47cENPKwQUrMG0DHRMBPy6Qm5syahBWPctIsNyaQIkRAKgKOLXsyTqz25dAAAEAASURBVGX+a5bwncq7r49JVV5xCBXwTWVxVCm+jPSEn/D8fRiG7brIbAisjbdnl2Lw3kuYxncquQmYM2wC3HfcgTuzWTB4fTDJvRXOO19Bj1q64gulFCJABIgAESACRIAIyCiB9PgQnDxyGJzUBKQoV8WwgR5QZYnfTkFGzSwWtRWqNMTiEf7YsG4TVDixqDZ4PYY246+sb4FxLnuwbOV6VNFRRqqCCf4e41osdVIhRIAIZBAoV07lo+Or8cWwPVwZh5IfnLrPxZvuGYom+z/CWV8VzKmauZUAs/GnSx0DHDx2Az0W984QKuP/uTF+2LjnOmrUqgZ2bDhUbZqhYwPrXFrFBjzGvtuJmDy0Xa54OqlYBMQtaS60kpeG01s2ofbgP1FTK/8x8cI8dEAEpCAg6dqr7N9BkviA7k0prjISKU0CPUdMhaZOxsPzraPaYwuzKv/0ztZit1OwrOSLJjq06QOHNnlbSA4uHiOYT974kjmX2B+k75mSAU+llikBqXqzvLQE3PnfPowdPhCDh4/B1oPn8CM6qZgVT8fVf68yK8uqYvuGDcxTplWYMXcpPofEC+oJCfBDtLIq1HOMVlBnluQO+PixmPUofHHpCcF4/OQ5Lpy7iEjFqmibx6FkxwViMzNR/PKLgMJXQjllgoBgSfO7l3Dr2RfUd+uYsaS5UHMeXl05ijXbjzNLX/OEsXRABIqDQH7XHn0HAfnxYYbA0L1ZHBchlfELAf7ek9HR0VJ/uFyuoAz2j4fo9PsMZO1OraWpAP8foUxaxnYKOiK2U/ilcooodQL59wfpe6a4GiQ1NVXqeyqOWY+FQskSkPymkpOA5aO64tDbZNhYVkEqM1591b9HMXuWJTYdOoEhrrWKSUMuQiIi8CnxO45v3CzYy+n7ne1o+9sUvLq7G6lpyeAxqxzl9ILl5eWRmpKYb/137txBfHyGY+rj4wNfX19cuHBBmKdjx45QVMy7GJAwucAHjTv3RxNbZShqm+TSFewEnDhyGZ1/c8eDswUuljLIGAFxS5rzzQh6cx2f5OuigbmqjFlF6soCAbHXHn0HCZpPLB8mle5NWbjCZVPH169fo1ePrrC1qSbRgOevvPEzKBgaGhpQNLbHQLdaePHsFdSSA3EtzApL/24qKEPcdgoSKyCBUiEgrj9YEt8z+b0ZDfvqjYevPyIxIQk61RuiU/PauebmlgqMEqpk+/btWLJmK3SN+EOc8w+qnHC8ffs2fyFKLRIBiU7l1zuH8NNhCnz2eQgvQm5qHP49uBEzhnkgde9VjHK1KZISGZnloKulBTuHpsLNgU2q10Ly87/wMICN2mqaYKVzwMnxYofNZkOdWWY7v9C6dWthsra2NhISEuDhUTLjH1gquuDEfUCdhj3w/tRKjDlvjx1zfmOcSw5unj6MOj0GQ+/LYaE+dFBxCYhe0lwViSHeuOCTDs8BtfBobTHaz0lBdBKPuYcYR5XLRkxCGnS01AUVcNKSEBYeBQ09I2ipVvJxUcWIvLwWJfraU6TvoMwGE82nBO/N8nqhkF6lTuC3bh2xbtlsifX2GjghW0ZRH6OmjoOvtzcStZyx92A3ZD0GF7+dQnZ2OiobAuL6g8kl1AfIejP6yfcDGrr1xqCskXLpUZjsOQ6zTt2Go3Yi+rrUQdqB9+jpoFE2YIq7Vjk5dB2zBg7Nukos+eTc1hJlSKBoBHK++BNZ0osP8Zg1Mduh5AuxlLXQ1XM+Xjw5jcsrZ+C/uHSReQsWqQCXhs5ITsh4q8jPy2OGf3BZSlBmtsE0sakFo6RYRHGyS40Mj4Z93fxXPsqWLvmjgG8R6NyrAzSUFNGgQwc83LMJwYy+AQ8O47yfHL4/v4Ebj94h/Ns7wd+MwS0lrxfVULoEci5prqxdVbikObiJWL9iC3Q0Obh44SICGEfv4TXmb2RqkRVkhzxHo+pWqOVYD207/Y47vlGCMoPf3cKqDTtw6/Y1TOrXFSuPPwRdd0XGXW4LEHft0XdQRpOJ41OS92a5vVhIMdkhIKeEGo714WxfVehQZimftZ1CTeH+fFkp9LcsCYjsD6aVXB+Abyv/zeiQgb/D2c4se6ScvC6Wbd8NOx15xPx4j3AFG9iaqpQlGqq7AhOQ+KaSw8xjZK5FkUHDpC62Lf8Nm47cw/Ixv8yKFpknv8gOg8dj3RAvhCQNRxU1Ft4+vA3zLoPRzFyR+SJ1gWc7dVx7EIAarlbgJAbj5ns2Js9um1+RpZr29NwhcN1rwMFcG5H+vtCs3QD6DGGV5kOwkVndmh98eO+g890Q7Zo6ZkTQ/xWOgLglzZkdqzGPcfAyQjIOL5qNJm7usNIXc4MVkMzknTcx0sMeCsyy81nh4q5VSG65AgN6O6NPy+qwbT0PA3+7DdNskSxR+lsBCIi79qyataXvIKZ9xfEp6XuzAlxaZAIRkAkCYWFhzBSnfyVuCs83hj9vdciQweBPpSruILI/qFRyfQBxb0ZZkINVjep4cOEA/rl4F62HjISFusT3ScWNg8qrJAQkdi1ttNh44J+ITtUzhtLl5WJSrzuMbmxl3n60yX4ykldIynMt6zY4uiYW65Ysh7mhIiKSTXH1sGfGJr9QwsytR7B+7Rbs/FET0V8/YcCaQ2hsxrzGLCehz/TF2L3rELa+1ERkTApOHViOnM+D/J6cw7GHMXBWi8WWo9cxvp9bOdGc1ChOAuKXNM+shROJ3as3wbxFJ1zevBRao2fCqRiu408Pr+BQ9DNER0ajxW9D0LCaPkZsuIj0zB/Mn34foGXrAF36PSnO5i5XZUm69ir7d5AkPiihe7NcXSSkDBGowAT8/JhV+Pf/y4wWGyTRyvPbpmHAgP4l4lTm2x8sge+ZvG9GhzaaiuAZv8GU2Y7PNzAaTT0Go7nHIGz2bIVpqXrYNZn6nxIvEBIoMAGJTmU9t3YYs2AjWm6YA3VR0nLMiqzKLMGQuuLoq1Zz6Y5VzEdUUNA0xfQFy0QllYs4vn6j/5wpVhebxt2wlPlQqPgERC9pnmm3AuPszV5YrBAUjeth8d+Noa2piFT/W2gycCru39vPrJYsL5gLHfr+OhYd98P5Y2uZ/c2KtWoqrJwRyO/ao+8gMFsNiNpuILMRS+DeLGeXB6mTSUDswiY8NrM44HX4RSRDQVENLVzdYKghqvNDKMsrAUOLGqjTQnQ/MqfOTy/tzXlarMf59gdL4HtG5JtR5rKNfs0sEDnxMt7d3ws1HgdJKelQUy0/L2OKFToVVuYEJHYvFQwc0d8pCgMmrkRgdNai1tl6p0Z9wscgOWZxawpEgAiUFYH9cwZh76MAQfXyampICQtEnGDyJA+fHp7HkQex8Nq+FoGP/kVUcUyBLitDqV4iQASIQDEQyFrYJO8WYJ8ub8YBHxX0+a0X3OrIY9y0jaCvzGIATkWUKAH+m9GEh4ex1csL26+HCEfK6dXthq1jGmLP1u3YvHY52E1nYIVnyxLVhQqvvASk8gVbj1iKr/MGob6DM/qOGIUurRvBQFsJkT984bVmLbosO1t5CZLlRKAcEGjS+Xc8iPyKt95JeH7+CPr+tQgmzN399PhS9Jq4lVn5VRvbVs+AUo2OeOvesxxoTCoQASJABMqWwK9bPvBw9tBJNPjTU6CYpqUzkl4twH8pU2Gbcy5LKattbV0dOkYWEmtNSYzDti3r0apVK4myJFCxCIh/M6qEDv3GoEPFMpesKacEpHIqIaeMYUuPok6jnZi+aCN2LJmKNOYtiJ6ZPSYu9cLQ5pK/7Mqp/aQWEagQBOyYIX3m0UHw+fITHuNXwVg7Yw/MRn3n4QfzoUAEiAARIALZBEQvbNINQRGRqKaUufUSSxEKqTGISEhnnMriX8wlWxsJRxqmGLjyjgQh4O7J9UhKSpIoRwJEgAgQgZIgIJ1TKahZHg27jsEd5pMSH4mQqBSYmptBqQy/Z0sCCJVJBGSVgLquKRo1MpVV9UlvIkAEiECpERC9sElP6GioIy2Nv80TM++MmYPGhio0VKmjU+SG4aXh9JZNqD34T9TUYmZeMef8Ff4/fI8EmLmrzVw7wFIv42FokeuiAogAESgTAgVwKrP1U9HUh5Vm9jkdZRD4+fMnvn37JhUOdXV1ODk5SSVLQrJFIDU1FS9fvpRa6bp160JVlX5MpQZGgmIJREVF4dOnT2LTcyawWCw0btw4Z1SFP+ZvIfDkyROp7axduza0tbWllidB2SEgemETFjp0dcNZnw9Aw8bM3PQv4Nm0QU3Ri9/LjrFlrikPr64cxZrtx7G27xSBNl+u78QzpR7w7GeGtOhPmPTXWmzdPK/IuwiUuamZCrx79w4JCQlSqWNhYQH+hwIRkHUChXIqZd3oktL/yJEjeHDmDGxMJb8tehQUhCdPn5aUKlRuGRIIDQ1F356/w7WRq0Qt7r+6j4s3LsHOzk6iLAkQAUkEHj16hJUzZ6Khra0kUZxlvn++Mt9DlSmw2Wz09vDA7y0lL1Tx/MsXLNy8GW3btq1MiCqNreK2fGg26G982+6F/Yf/Q8SPYKzZuojZJ5tCUQgEvbmOT/J10cA8++EpiyWH1ZMGQGXlCjip+MPIxqHCOJR8VuPGjEFDIyOJ2PyZ/oID8x2zeMkSibIkQATKOwFyKouxhfhP/se5u6NDvXoSS221YoVEGRKQXQJOtk6YOXSGRAM4HLZEGRIgAgUh0I15+zitRw+JWby/f5coUxEFapqbY93w4RJNW3H6tEQZmRBIT8HPsESYmejnUpeTmoSwyHgYVjGGosR14HNlrRAnYhc2kddAv3GSv7srBIRSMCIxxBsXfNLhOaAWHq3NrtC6xUBM6PAUG6f3w0+2JfYdP5idWAGOVJh5udJ8z9xm3mjeYUY3FTX4+/vj1q1bkJOTk1iUsrIy+vfvL1GOBIhAQQkU3KlMT8PPn2EwYH6YowM+QcHIGgb/Z+8swKLK2jj+p7vs7m53bdfudnX1c3cVXVuxsFvExkaxMNbuXsXA7hYQFUVaumOoYc5371CDwsAgyMR7nwc99+T7/s65Z+57TxmmLWqXtXSKTwSIABEgAkSACBQSgRTctJ+HjS4Ncc1ubGoZogRcPLAF76JLoFGpWBx/oYkjW6Yo1ShRIcGkbGUlIIrD5rXbUbNTX1y5fAVeIeF4dOMKyvfsjgd281Bp1Ca8XGeMB6fsMHnkaNR6dh3VdFXwC4esXLOJzy+52XnyHhp3/COb0KxeN+znkFGZFQndFRABmYzKlFh/TBvaC/ZOxvji/QDlyphhzdJFGLpgJWoVp8NUC6hOKBsiIDOBnTt34lkep1O3a9cOY/IwUiOzEPlJ8M3mDTkeSJ6fvCkNEVBxAp8eXoB7rGkWCi6Xt+CEVxUcXzEMwghvxBl4ZQmnGyJQYATUDbB4y+607OJxxHoBWnfrgyrcoPnJ0HjU5jfmUdNGuyGTYf7Ui3OTQfkj7CvXa4EGbfvnmsWLi7a5xqEIRCA/BGQyKp0c9iGq8QRs6JC6+FhDvzSGdCmDhVsv4Yz1kPyUT2mIABEoAAL37t3D2kUTYGZqLDW3z1+8sPPwVTkxKr/fvCH9QPKPn9+jebchMG9WTao+FEgEiED2BCK+PMGj4LLo2yIcFz3T43DnMB49hWKNJuPQ4cOICPBBjS4jaJQyHQ/9XzgEhGHYu94WFdr1gsO2VTCeOA8zli2F7Y71eFGyLEQJCWgxbj6q0dhE4fCnXInATyIgk1GZklICk2aOR9TV9C9PDF6fP+GrJ/tJ4lIxRIAI5ETAxMgQJsbSt2XOLTynvAvDP7vNG/hyvj+QvDBKpzyJgPISSIz0xPG7fhg/ZggC7rtKKJqCqJho6JRvAPMRrcDi3qNdC3M0fHMXlWgViwQnchYoAc3iGLtg+TdZVsOcJVbf+NEtESACikxAJqOySdcOWL5lI/RFoUjizhe6dO8MrGyOYuq/DxWZAclOBIjATyaQ0+YN2R9I/geNpPzk+qHiFJuA3/s3CAr4DJvVqxH66SG+uOli+9EKmPx3TzRpVA8eaTMa1LR0oS6IQHiiiDMqVWvqYXR0NHceZVKeKprf2MTISPoHuzxlRJGIABEgAkpMQCajUqRTEr26NITjhVPYbr0CeiZlsf7sfYzo0USJEZFqRIAIFCiBHDdv6IEU71D0HtwDhtpaaNajB/5pOQsBc/9AeZl6qgKVljIjAgpHoHqbQVjeBgj68hrH97nCKMQEdapVFH+cGTB5AaZaH8LLan8j4OVlNBwzHw2NVMug5Ct08uTJcHv9ETra0udcxsbHoXGrxjh48KDCtQMSWIEJfLPfAK9JsIcLHr35gLhYAUyrN0ev3+pDQ4FVJNGVj4BMr2qvz63F2LMacLl0AJIJ4+IEMDDQVz46pBERIAIFTyDHzRs0cGzrYYj61ESDCiYI8/wMo/rNUFyysyl4aShHIqC0BEpX/wUzVh/FDAkNjSq3xt4dDeHq8g41uo6DXeWSEqGq5dw6bwuKmRSTqrRvoC+OPDkmNQ4FEoGCJfD9fgNICceMcRaYf/oOGpnEYViLhkg66IpBDQwLtmjKjQj8AAGZXtca9RyD8VEv4R8Yyo0kpH7ZTEmKhMPdjzAf1vsHxKCkRIAIqByBbDZvyOlAcpVjQwoTgUIkoKljiMbNWhViCZQ1ESAC+SWQ7X4DGmZYvWsvyppqINLXFSGaNVCrnG5+i6B0RKBQCMhkVAY6O2Le9OmYOT2rLP3mHeeMyqx+dEcEiAARkEog280bymHizHlSk1EgESACRIAIKAaB27dvw9MzY/thqULXqlUL/JFXqnzltN8Ad94KqtSsjoeXD+LclXvoOGo8Khqo3rR1VW4biqC7TC2yWvvfsdnuFKK4+dwCQepfTLgXBjWkBeyKUNkkIxEgAkSACBABIkAEfhaBXbt2Qff9e5T29pb6F/n4Ma1bTdtvwNRIiCuXr8ArJByPbnD/hyWCJcXi0xd/tOk3Ept27YPpazvM3nnrZ1UjlUME8kRAppFKNZ2KGD/KAA/vXMGbD96oVPcXdOnUDqP+rpynwigSESACRIAIEAEiQASIgOoQ6NuiBUwMDKQqXNPPDx9evpQaR+kDpew3EP7mEnpPc4Dzg/3QZ0IIElKgryd9kyml50UKyh0BmYxKlhCCqX3b4bKPNmpXLQdNh4vYuKUS/j25H7WL0SFXcle7JBARIAJEgAgQASJABIiA4hDIZr+Bxk0HwG5SKPbZ7QLig5HcZi7WjmuvODqRpCpBQCaj0u3WCWj0s4GXZX9opeGJD3LBtlPXMHdif5UARkoSASJABIgAEZB3AnVq14GZoWmuYsYIYmCzcT1696bN9nKFRRGIwM8gkO1+A0CPvyahx88on8ogAvkkIJNRGSowhqVFpkHJl6lXojL04p/ks3hKRgSIgCoSCA8PR0pKSp5UN+CmTenr05FFeYJFkYhAGgETHWMcWLI/Vx4nr59CXFxcrvEoAhEgAkSACBABaQRkMipr1TDG5u2nMOmvztBHIr76uOPMno1IaLNAWhkURgSIABHIQqBjx44w0TTO4pfdTWBoEMZMHoP58+dnF0x+RIAIEAEiQASIABEgAnJAQCajslTT/mh5dyba1h8Nv/A4aBuWxO8TFsN+ZGs5UIVEIALKQSA6LBDRSRooU7okNNP2Z06MDkEkM0ZpE+VYmM8fOL5r1o5cK+z+q/uIQFSu8SgCESACBUcgJSkegcGhMDAtBVPD1D5H2fqggqNFOREBIkAEiABPQKYjRQANDLTcCt/gcPh6eiEiPBAnNkyDkQbBJAJE4IcJsCQcWjcHR64/xas7x/H7kPHwjhaKs3W9vg2Vy5RAuYqVUZM7y6ty1To48MDrh4ukDIgAESACkgTCP93BrCWb4PTOBRtmD8eqY4/FwdQHSVIiNxEgAkSACHxLQKaRSqQIcOnALui1Ho5u9Svj6/sneBRthi6t6shqnX4rB90TASIgioebWxCGjumLxsXicWpzAzz3FKByY2OECatyBmYMSnM7ZAW+c8Tpt8A/7aoQMyJABIhAgRII8XWHWukG6N2zN6oku+CvA1ex4K821AcVKGXKjAhkT+DZs2dwdnbOPvAb3woVKqBXr17f+Bb9bXazrdKlEiYKEBwWg5JlSkNLxmGt9Dzk9X9V1VuyPmSqUu/7R2G1/xYShamjJ+XrtUb8w5048NBXMs8Cc4cGBiC1JMksGeKiozgZ8rbJh2RKchMBuSagYYJV+/+Fnu9T2C6bA4O+KzCAMyj5q9uf/4gNyoRQV+y57o/Jw7vKtSokHBEgAopJoHaXcVj9TzPcvHQUy/e9xLb1M8UfjakPUsz6JKkVi8CZM2cQ9vUjKphB6p+plgC2trbypZyU2VYQJeDivrVYt+OYeCbWyJnbIZIv6fMvjarqnQ0xmUYqfYLUcfzOFdSWWNZVuWpxrNt7BmN+s8wm+/x7RXs9QreBS3Dp5W1UTJMy0vsZltscRZ1mzRDu8RZ6dQdg6l8duEm5dBEBZSGgjlpNf0OF8iUxfsQE3HDpib4NS6UpJ8KhNevQdsZeavPKUt2kBxGQQwJ6ZuXRrd//oBHojA1bDqP51unQFX+Cpj5IDquLRFIyAr26dUDjBnWkahUbG4f9J69JjfPTA6XMtnK5vAUnvKrg+IphEEZ4I87A66eLV2gFqqre2QCVaaSybr0yOHfMEQlpg4Thvi5Yv3EfSlUol03W+fdiieHYa7cDgeHJmZmIYrFw9FR0tVyLCf+YY4H1angemYtL7yMy45CLCCgwgTjuo8mEORu5fZUB/VK10auxAXYdvpmhEYtzx+F7AWhYVjvDjxxEgAgQgYIjIMLpDbNx+oUfoKaJDr8PxvtDu+AamzqmQH1QwZGmnIiA0hHIcbYVw4Wjp1BMJxaHDh+Gnf0RGFWsqjzL5lRV72wasExGZYlGvdAk4Qba/NIETRvVQaWazeBi2Bk2Mwdlk3V+vUS4dnQfWg8ZmfZlNDWfeM/HuPBZF40rp51Xp6aLFg1L4NBxx/wWROmIgFwR0NTRRUpUCJzeusDp6XVcdBbBclzmeolkf094CA1hLNP8ArlSkYQhAkRArgmoQ0tDHX7uH+Dq+g7HDhxFs4mWaGSc+qpAfZBcVx4JRwTkgEDqbKuxUy0heLyfm20VzMmUgqiYaOiUbwDzESMwzeJ3rDE3h0+SHIhbYCKoqt5ZAcpkVPKbxfaaZINnT+7iAPdj4/TlK97cOICaxbjdQwro8n16Ef5leqNZOb0sOQZ6uSNCRw8GEnNdDQz14fXhQ5Z4dEMEFJWATpnG2LtjGQyZAIk6FXHg0hV0qVksQx3tqr/h1skt0M3wIQcRIAJEoGAJDLS0wehONREdFYO2I6xwfN14pP/CUx9UsKwpNyKgTARynm2liSaN6sHUNHWPCDUtXagLIhCeqByrKlVV7+zabq5jHomRAXj0/C1CwsJRum5bdGxSBSmJMbh+zBbX3gaj6zALzBzdF3oSxl52BeXFLzHiM44/j8OsafUh8nuQJUkid24WU1fPMlyuoaGBxIS4LPG+vblz5w6io6PF3q6urvj06RMuXryYEY3fOUtbm6YTZgAhR9ES0NRDvaYts5dB0wB1ahtkH0a+RIAIEIECImBSpgpac3/fXdQHfYeEPAqHAEuOxeM79+ATFoUkkSY69eqHSsVSBxuCPVzw6M0HxMUKYFq9OXr9Vp/2GSicapApV8nZVjoJ/qmzrbalzrYaMHkBplofwstqfyPg5WU0HDMfDY1kHNeSSZqfF1lV9c6OcK5GpbaeOrYvnYW+q8+IDUqWFI45/+uCPU9j0G9ATzw6uBgC/TJY9Xez7PLPux+30PXQzqPoMXwSwkNCuIW8UUhJESIiNARmJibQ1zeCOncvZJlZJicnw8DINNMjG1enTp0yfM3MzBAXF4cBAwZk+JGDCBABIkAEiAARIAJEQH4IOF1cj+3vG+P40r/gcmEVBk5Yh5enrbj3wHDMGGeB+afvoJFJHIa1aIikg64Y1MBQfoRXUUlSZ1vVwnsXZ8SmzbYy0E41HI0qt+ZmYjWEq8s71Og6DnaVS35HKYUbPAoMDoWBaSmYGmbuCCpM4o4hCQmHYbFSMNaTv0GgH9X7OxAK7JGrUZkU9BG1hm3C6M71xGrePWCNHfdCsfW/Z5jSrSZYwlfMXXwQ+GGjMg46Bia4ffaYuJykgHcIignBuaNH0LHH/9C2Rj2UEkQhnDtjpHjaqGhYSATqNG2iwPhJdCJABIgAESACRIAIEAFJAvW6W2BlG22wlES85UYlf20xNHWmmoYZVu/ai7KmGoj0dUWIZg3UKkeLQiTZFalbymwrTR1DNG7WKlvxwj/dgfW+x+jeqSkeXzgAvfaWWMSdjxvgfBsHrjmhUjkT3Dp7CnX+twRzhrXNMmsx2wx/tmc+9f7ZYhZ2ebkalTFBX4FiNcVyRHk9wLRFdug0ZjMmcQYlf6lpG6N8GROx+4f+0SwB8+npx5IwBDw6hOUHXTB03GTUM+a/WJTAuK4GuPHQCzW7VIEwLgC3XJMxY0HnHyqWEhMBIkAEiAARIAJEgAjIDwFt41IoFfMeOzadxHP/Ehht+WuacGqoUrM6Hl4+iHNX7qHjqPGoaKAc0yjlh/7PlyTE1x1qpRugd8/eqJLsgr8OXMUCzqi8Ym+D+PZrMXxIEwxtXx21Oi7GiD/uoFyu1svP14FKBHKtlmJ1WuHLnFFY8LktHI/sxlfTdji5cmLa/HUR3lzcifDSmVNMCwLq03M7cezeJ0w2b49dS+ah9+h56Nm4LObZHcXmjduxx68uIjw+YviGw2hVPnOIvCDKpjyIABEgAkSACBABIkAEio5AqO8XwKwmLOYsxz8ejmjYaRhufryHqhoCfPaNQJt+I/FbP3NsG9cBsxOLwX5Gt6ITlkr+YQK1u4zD6l++4ualo9i7/yW2bdwtHo0cu+UKUrj9U/jrq/t7GNdqADP6hvDDvAsrg1yNSnWjathzaDNs1tmhQZ9J2Dd/LuoV0wRLjMDR7euw58w9tB3VuEDlazVoMlplc0qJplE5zLFaXaBlUWZEQJ4ITJ48GREREXkSafz48ZBcM5ynRBSJCBABIiCFwNq1a+Hk5CQlRmZQz549MXLkyEwPchGBAiGQAlvLP2E09hDm9KyDpAQB1HX0ockddxPh6oDe0xzg/GA/9JkQAu7gdH09GlwoEOxFnImeWXl06/c/aAQ6Y8OWw2i+dTp0OYOSNymDXG/C+oQ7Lh3fCG6rF7rklECuRiUvt1mlX7HGbn8WFdR0zDB8FjckPSuLN90QASLwAwTePXuGG4sW5ZrDsXv38OXLFzIqcyVFEYgAEZCFwD2ubzk7ZgzUud3WpV2v3N1x+s0bMiqlQaKwfBLQwMxNO3Hg9DXs9r4DH6+vOHz1KCrxe7Q0HQC7SaHYZ7cLiA9Gcpu5WDuufT7LoWTyQUCE0xvmAh1mYEjzCujw+2BMmDMSrqum4ldjNXx8dBlX3yVhx66NeOlwDsY9B6FY2t4q8iE/SZFOIE9GZXpk+p8IEIHCJaDBvcjp5uGIG10tLQgKVxTKnQgQARUlwPdBuRmVeemnVBQfqV0ABEy5wQzLWenrKCUz1EaPvyahh6QXueWGQNMmTWCopparPBGxsVhkbY0///yTi6sOLW4U2tP9A1z1I/H6ylE0m2iJRsbqeHZiJQZPs+N2fjXBzvVzoV2zJ5z6ZDOVMdcSCy9CSkoKKlaogOplyuRaCK/3jn370L69cn4IIaMy1yZAEYgAESACRIAIEAEiQASIABGQRsBUUxN3rKykRRGHHb17FwJB5qfxgZY2iAr0wnuPALQdYYURZc3E8VoOWww/7k+eL8YYapcsiTsrVuQq5vpz55CYmJhrPEWNQEalotYcyU0EiAARIAJEgAgQASJABJSAgEmZKmjN/dGluASkL5rIg16i5Djcu/8sDzEpChEgAkSACBABIkAEiAARIAJEgAgoGwGZjMr40A8Y3bsVTA10oMkNcfN/WrpG2HjVU9m4kD5EgAgQASJABIgAESACRIAIEAEikAcCMk1/fcWdSelf+Xfce/Ev9LVSt15KFoTggVNkHoqiKESACBABIkAEiAARIAJEQDoBZ+5Ym4ePHkmPlBZavHhx/O9//8tTXIpEBIhA4RGQyais3aIrOumWRON6dSQkqg6zksES9+QkAkSACBABIkAEiAARIAL5I3D79m14f3JC7+4dcs1g4eoNZFTmSokiEIHCJyCTURmfooUXx5fD4mVd8McF8RdLEYCV7YytC+grUSoR+pcIEAEiQASIABEgAkQgvwTUuOO1unRsjW6d2+aaxarNWc9RzzUBRZA7Alu2bMGTJ0/yJFenTp0wceLEPMWlSD+XgExGpZmuCP5RWqiorgGNtGNokpOSIVKTaWnmz9WQSiMCRIAIEAEiQASIABEgAkRALgnwBqXtqhkwMzGWKt8nd09s2XdBahwKLDoCMhmVRrU64uSJVqhYvniGxDEez3HeXSfjnhxEgAgQASJABIgAESACRIAIEIG8EtDW0oK2tpbU6LmFS01MgYVOQCajUpSUCIcDq+Hw4hOShCKxcIJQbwjrjYF598aFLiwVQASIABEgAkSACBABIkAEiAARIALyRUAmo9Ll+mG4qFXDoK4m+JhUEY0r6MH55XMMnDFOvrQiaYgAESACRIAIEAEiQASIABEgAkTgpxCQaTFkrHoZzJ1jgREWlqhbwgCD/jcM80a0w54jd3+KsFQIESACRIAIEAEiQASIABEgAkSACMgXAZlGKhvVLYnfu/yG1v+sxrBS/hg8bAxEvo8Q02CKfGlF0hABIkAEiAARIAJEgAgQASJABIjATyEgk1FpVKMzDu81QYReNdSr1AYz43fj7NMKGD9r5E8R9mcWIkwSIDgkHIbFSsFYL/0AlVQJkgTRSNIwhKGOTAO9P1N8KosIEAEiQASIABEgAkSACBABIvBTCMhsFZWp3hAltAXw9v6KKi36wnLS/+CSx7NlfopGBVBIgPNt2GzZjdt3bmD6X/2x7sQj8NsSJYd54dB+e5j3bINL7wQFUBJlQQSIABEgAkSACBABIkAEiAARUGwCMhmVUV6P0LlRFVSuVhuNGjVK/Wv8K46/CFdsCt9If8XeBvFVO2H48NHYvXUBdi5cjEAhoFW8CsxHj0OjcgbfpKBbIkAEiAARIAJEgAgQASJABIiAahKQafqrs+NJ1Jt8CI5TukIjnZcwBlduvEy/U4r/x265ghSNVA2/ur+Hca0GMJPJ/FYKDKQEESACRIAIEAEiQASIABEgAkQgVwIymUr1W3VD9dLFMg1KPntNA9SqWSnXghQqAmdQ8iZlkOtNWJ9wx6XjG6EnEymF0paEJQJEgAgQASJABIgAESACRIAI5JuATCOVZrU6IH7HeIy8bgittCKFCRHQrDkUe5dVz7cQ8peQ4eOjy7j6Lgk7dm3ES4dzMO45CMUyhmflT2KSiAgQASJABIgAESACRIAIEAEiUBQEZDIq317YiH1PQ/FHr1ow0E61sFISjRCtr1zW1rMTqzB4mh2386sJdq6fC+2aPeHUZxBEccG47vgQ7/yjEOh4DuVYS3RsVrso6o3KJAJEgAgQASJABIgAESACRIAIyAUBmYxKXX0jTF9jj+k9qkoIz+Dj7Sdxr/jOlsMWw4/7++4yKIVeAwaJ/74LIw8iQASIABEgAkSACBABIkAEiIAKEpDJqKzcdjCSd1/Eu0o9MtZVMlECXr4LhHnliiqIj1QmAkSACBABIkAEiAARIAJEgAioNgGZjMqgN1exdNlCbNhqA3W1VHCi5Hi0GrMT5v9TbZCkPREgAkSACBABIkAEiAARIAJEQBUJyGRUVmnVC6cdOqNP57qZrFgCHG8V7JEiwkQB4kWaMNLTziwnw8UQFx0NTX1D6Ggq11rODBXJQQSIABEgAkSACBABIkAEiAARUBACMhmVavrVOIMyq2YC7w8wq9s8q2c+74RxIThqbw/PWIYwT2d4xJhh2dpVaFGtuDjHSO9nWG5zFHWaNUO4x1vo1R2AqX91yJiKm89iKRkRIAJEgAgQASJABIgAESACRIAI5JOATEbl51u70WfSxixFRQT64o91Dvh1Uscs/vm5ubrdCoJmlrDqUkOc/LLNKPQbMgWfnh+HiVosFo6eij6776JPDX2ADcX0Ph1wqck1/F7PLD/FURoiQASIABEgAkSACBABIkAEiAAR+EECMhmVwhQDzLDZgYbFdVKLFQnx4v4tNP2t5g+KkZo8OMgHF85cxaQu08QezX7rhPAla/BZANQPfowLn3WxsDJnUPKXmi5aNCyBQ8cd8fuKIal+BfTv8OHD4fLKBZoa0vFEx0ZjwB8DsGHDhgIqmbIhAkSACBABIkAEiAARIAJEgAgoFgHpVtM3ulRu3Q9jjEyQZlKKQ38pHouxx+6jU8M/v4kt++3YTZcxViKZ84uHKNW0BWpxdmSglzsidPRgILGM0sBQH15OHyRSfO8UiUQZnrybMQZJPzU1NfB/kldsbCz+tdoPPa48adcn78+45nZdWhQKIwJEgAgQASJABIgAESACRIAIKDUBmYzKxHBPnDjyRAJICt5eO4KwSmMk/ArGGfnlLpbtfYO9Jx1gzBmS/knxYOrqUJfIXkNDA4kJcRI+3zsfPHiAmJgYccC7d+/g7u6Oq1evZkTs0aMHtLS0Mu7JQQSIABEgAkSACBABIkAEiAARIAJ5JyCTURn4/iGOnL+GkvqZyYpX7Y1dS8zzXmIeYkb5vcS0+Xux5bIjWlUxFafQ1zeCeooQQpaZQXJyMgyMUsMzfbO6OnTokOFhbGwsNjD79u2b4UcOIkAEiAARIAJEgAgQASJABIgAEcg/gUzrMKc8UpKQyB3voaOljpKNB+K6wxQYSkxB5ZMlJCTmlFpm/yifF7DafAmr9h1ARWMtPDj1L8r0G4UqNeqhlCAK4UKgeFr5YSERqNO0icxlUAIiQASIABEgAkSACBABIkAEiAARKBgCkrNJs81RGPoGx666icNKlKvwnUGZkhCKY9wU1YK4Ir2eYeifUyDSSobd6sWYOX0KrE89QVluEadW+RYY19UANx56iYsSxgXglmsyLP7+5oyTghCE8iACRIAIEAEiQASIABEgAkSACBQygSRBNGITM/eASS8uJ//0cHn7P1ejkju7AyuHNUaJkqVRuvT3f8VKVMCFDwkFoteTG9dRoU4DxIaFICQkFFGx8WjethP0xVJqY57dUQge7MGeg4ex0WY7hm84jFblJbcNKhAxKBMiQASIABEgAkSACBABIkAEiEChEUgO88Kh/fYw79kGl95xR12kXTn5p4fL6/+5T3/lJG/cdRjadGwKDc64Swn9iEsfNPB7u9RjROLDPOCjk3X31Pwq22v8UvQan3NqTaNymGO1OucIFEIEiAARIAJEgAgQASJABIgAEZBzAlrFq8B89Dj43dibRdKc/LNEksObXI1KNd1SWLrZDk1qGInFT3RzgJeDJixndEtTR4jXr13lUDUSiQgQASJABIgAESACRIAIEAEiQAQKm0CuRqWGSTU0MZEmhiZ++aWxtAgURgSIABEgAkSACBABIkAEiAARIAJKSiDXNZUpoc64+SIoZ/VZAq5du5NzOIUQASJABIgAESACRIAIEAEiQASIgNISyHWkkqUIYDWqP/Y3rsGtqVSDKDYQb/3VMfzlQTGUhKiv0Gw4AT17Ki0jUowIEAEiQASIABEgAkSACBABIlBgBERxwbju+BDv/KMQ6HgO5VhLdGxWGzn5F1jBhZRRrkYlX26KMB5hYWFio5I73AOVi0N8z+8MmxQXi1IFs09PIalI2RIBIkAEiAARIAJEgAgQASJABOSHgLpBKfQaMEj8JylVTv6SceTRnatRqaahjxVHbqBb8zI5yJ+IG9cf5xBG3kSACBABIkAEiAARIAJEgAgQASKgzARyNSo1SjRCtxLSEOige49O0iJQGBEgAkSACBABIkAEiAARIAJEgAgoKYFcN+pRUr1JLSJABIgAESACRIAIEAEiQASIABEoAAJkVBYARMqCCBABIkAEiAARIAJEgAgQASKgqgTIqFTVmie9iQARIAJEgAgQASJABIgAESACBUAg1zWVBVAGZUEEiAARIAJEgAgQASJABIgAESACaQS6dOmCuOjwXHmEhoZj1JhxWLx4ca5xizICGZVFSZ/KJgJEgAgQASJABIgAESACREDlCKhzRzI+dTyZq953Hz7D7aefco1X1BFo+mtR1wCVTwSIABEgAkSACBABIkAEiAARUGACZFQqcOWR6ESACBABIkAEiAARIAJEgAgQgaImQEZlUdcAlU8EiAARIAJEgAgQASJABIgAEVBgAmRUKnDlkehEgAgQASJABIgAESACRIAIEIGiJkBGZVHXAJVPBIgAESACRIAIEAEiQASIABFQYAJkVCpw5Sm76M+uHsP85bYISxCJVfV6exsrrVfhoYuv+P7KrvVwCksRu1lSKM6ccVR2JKQfESACRIAIyBGB2OAvOHf6JM6ePYt7bzzkSDIShQgQASLwcwmQUflzeVNpMhBo2aUpXu5bjZEL7JHE2ZVVmvwGHU2G1g0rAsJQnLzrglrFNcQ5ejy8hNnL18BbkGqAylAMRSUCRIAIEAEiIDsBYQTmTVuKX/sMweDBA+ByeAmufoqWPR9KQQSIABFQAgJkVCpBJSqtCmpq6G9pA5MnG7H86BNOTTWYGBcDb0aGvnUA6g2FHq88S8Jt13gs6q6DnWde8z50EQEiQASIABEoVAKxbg/xPKYMKurzr1KaaN60HA6fuVeoZVLmRIAIEAF5JUBGpbzWDMklJqCmXx47T/6La9ajceZ1YAaVa2euY8ifXcT30Z/vglXtgqFjJ+HKri2ITp0RmxGXHESACBABIkAECppAVEQwkrV0kP4ipaWrg9CA4IIuhvIjAkSACCgEgfS+UCGEJSFVk4Bx5TY4ZT8TC83N8SUqWTz19bon0KU6P07JcP2yI0LcHLD/mhvKCZ7g2EM/1QRFWhMBIkAEiMBPI6BvYAIkxiN90UVyYhIMTYx/WvlUEBEgAkRAnghoypMwJAsRkCTAkpIQE5so9qrecRy2T3LGQscQhDpdB6vzB/gZR0mhzvig1gJLZ/4hjtelkgAjNtnhn3ZroEOfTCRxkpsIEAEiQAQKkIBp3ZaoqXYaYdyi/5LawId33ug/YEYBlkBZEQEiQAQUhwAZlYpTVyon6bM7rxERpYYvwR1QvZQBuk9eD2Gl23B3c8Go4dM4HkLcd7gJTf0aiOGmvBppiJCkWwEtSr6B4xsv9Pm1isoxI4WJABEgAkTg5xBQ060I2/Xjsc92FyoUY4htNAGTW5f7OYVTKUSACBABOSNARqWcVQiJk0mgVb9R6FuiRKaHmi569+vN3fN/qVfXEbPRNf2GW9nSrM9o7i/DgxxEgAgQASJABAqNQNn6XTCf+6OLCBABIqDqBBRwgiBDXHQUEoW0G4uqN17SnwgQASJABIgAESACRIAIEIGiJ6BQRmWk9zNYWkzHkbMXsWn5HGw5dg+Kblq+ffu26FuBHEvg4uIix9IVvWgeHh4QCARFL4icSsCz+fz5s5xKJx9iOTs7y4cgcirF+/fv5VQy+RArNDQUAQEB8iGMnErh5OQkp5KRWESACBCBgiOgONNfRbFYOHoq+uy+iz419LlNP4diep8OuNTkGn6vZ1ZwRH5yTiEhIdDW5lb405UtgbCwsGz9yTOVQFRUFEqWLEk4ciAgFAoRGRmZQyh58wR4o6B06dIEIwcC1AflACbNOz4+HomJqRuqSY+puqH877yJCbdTLF1EgAgQASUmoDAjlfGej3Hhsy4aV+YMSv7i1te1aFgCh447pt7Tv0SACBABIkAEiAARIAJEgAgQASLw0wkozEhloJc7InT0YKCRycjAUB9eTh8yPbJxJScngzEmDuFHLcLDw7NMh9PQkMgwLT0/Zc4vyA+62vw5iDlffJzo6GjwUxD5K4z74u8ZEwOPwMCcE6WFxHJl8On4aUP8SGVYRBQ8vHxzTRfOjbqkl8d/IY6PjUSYf2r50hILosPFZaWnlRY3t7DQkFAEBQfCN9Avt6iI4ta/ppf59etXRMbF5YlPOMfR29tbLPOXL1/g4OCQa1l8BH19fXTs2DEjLl+XeeETFuAJHW7UL13WjAzy4fD390e0ICZPfCJjo+Dr6wstLS1xSRF5bD8+XFtj3NdvPz8/8G04NjZW3H7MoqKlSsy3sRi+jLQ2y49ShUeI8sQoLi6zrUstJA+B0THReeLjF/QVCaaJGfKKnzfu+VJXl/49LISryziurXl6eoJvd/xIQVTw17w9YxGZzxjPN56ro7y0oTjuGePbbEGM2vCjq76xfihmXFwqTWGKEHw/kF6fgRybwIiIPD1jYWl9F98HGRoaIjKKaxd56YM4PjwXIyMjsWxx0RF54hMe6I0wbsZJuqxSFcslkH/GomLz1oaiuPrj24GmpiaSuGOKovi+Nw99NN8H8Wz4dLzM0fxzkwc+nt6+4t+ZdD35Nsu4PlpbJ+2DaA66JXDPF99fpafLIVqevXm989JHh0SEICgoKKNcsQx5eMY8uTj8TAm+zfNc+d9WD291VKxQNlcZJdsszzg2KiRPbSguOixDzlwLySUC32f6cr/hcfHSlw/wccT9a1qfKRKJxKP7uWQvDjYwMAD/J9aRKy8qOm9tKJx7xvg2y6flr7z2QTzHgACTXBmZmZmB/8vvxT9/CQkJeUrO98P882aSpktOifg43/42qSWwPD1zMfzvX1r98LLl+b0oJlzMuTBmi8Xk8V2H1zuCe0dNl59/pvh+xsgwte5z4hUbG5el7+ef4aiQr3l6jmKiQjPKyyn//Prz/WZe+ldf7jcZ3EaM6XpnvMOYSj/nlWcj+d6d+g7DvX/n4T04jvvNSC8vv/plly4lJYX7PeLaIFeXuV387y7fH6TLka53buk8vPy4dzXutz2tnfPvCMmczrr60nklxsfJ9LvCPwsVKlTITZwcw9U4gyvV4soxinwEfHTYiCYzHBH0wQEmae+Tl1cPw7zHlfH+v3U5Cvnw4UPxDwIfge8Ez549m+fOMMdMCzCA7who6lnOQIODg1GqVKmcI6h4SATXyfAGQbpRquI4vlOf/6jEv6gUK1bsuzDySCVAz5j0lsB/kKAp5jkz4o1Q3tDi+yG6sicgb7/zf/75JwYNGpS9sHnwXbJkCT5+/JiHmAUbhR8Y4I2u4sWlf2wr2FKLPjf+3ZX/cGNsLN2AKHpJC1YC/reb/2jODxao0lWU73VVq1aFjY1NvnErzEilvr4R1Lmv8kIJE5h/YTQwMpWq/G+//ZYlfODAgVnui/rm5s2b6NatW1GLIbfl3717N8vIo9wKWkSCvXnzBjVq1MgYNSoiMeS2WP6LppubG5o3by63Mha1YLdv30bnzp2LWgy5Lf/Bgwdo166d3MpX1ILxMy340Xm+H6IrewKOjo7o2rVr9oEK6LtixYoikZr/gMFvbtimTZsiKb+oCuU/SvAjcvXr1y8qEYqkXHd3d+jq6v7QyFmRCP6DhSrye530OWQ/CKYgk5etUQ+lBFEIF2bmGhYSgTpNm2R6kIsIEAEiQASIABEgAkSACBABIkAEfioBhTEqtcq3wLiuBrjx0EsMSBgXgFuuybD4m76w/9QWQ4URASJABIgAESACRIAIEAEiQAQkCCjMmkpeZmGMPzZv3A6TqnUR4fER9fuPQ99fq0ioo3hOfs54+oYXiid94UtMfKQz5qcD6ejoiNcdSI+pmqH8Anp+ap6qrcmQpbb5jQJoPVzOxIhPzmz4EH6tF781A98P0ZU9Afody56LrL782l1+k6f0DYxkTa+o8fmlXvx6Uj096ZtHKqp+OcnN/3arqamp3LF7ivxep1BGZU4Nj/yJABEgAkSACBABIkAEiAARIAJEoGgIKMz016LBo8ilctueB4cqsgKFIDsxkQ6V+EjnQ6FEQDYCKYnRcDi2B889Y2VLSLGJABEgAkSACPwwARF3vFr8D+eS1wzIqMwrKQWLd2mTJdacfAqRgsldmOISE+l0iY90PhRKBPJKIFkQgSd3rsPh4gnYX/ND06p03EZe2VE8IvCjBOIjv+KA/X6EJ6W/ATEE+3zC67fvEB6X/KPZK2z6OO586HQiCqtEroIL8eHheZy67ZoRU5gQjXdvX+Ojp78K6J+hNhIj/bBh1nDM2nE707OQXWRUFjLgn5m9IPQLbBbNhMXUGbj55jPi1fSg6hVMTKS3QOIjnQ+FEgFZCSRHe2L2pBnwTNBHxSo1USb2KY488Zc1G4pPBIhAPgl4OL9GMf1obDn8mNuMIxb7rKdgzf4r+Oj8GIstxuPCq6/5zFlxk324exR/DxuOm+7RYiWCP7/AhpVLsWDhItgdvoroDANccXXkJWcJIXD2U4fL+R3wE4gQ6HQVYybOwWPnD7j672ZMs9qFGIlTJBRbW+nSq6nrYvCgwShbqbz0iAUZyi2wp0sZCIji2MopY9gb/9hUbZIi2KJxI9jbkARl0C5/OhAT6dyIj3Q+FEoE8kHAceciduFDdEZKkcCPjRsxmUUkZ3iRgwgQgUInkMg2zJnMHM7tYVscPmeWlhzJFlpMY6Eq+DwmR7oxi6mrWdTXl2zclGUsNCFFzMXtzkE2cdk+JsykpPCuEKdzbNamU2zlgkUsSqKu3W/asZXHXyu8ftkqIEpiL64cYGNnrmFRaZWZ5PeAWe26k230wvBU9YGsgrTPizSvlDBXRJXoiSZlDVLl0DKFxchOmLt8H1KKVLKiK5yYSGdPfKTzoVAikCcCKYn47PoOwdGJ4ugBwSLUrGyUkVRNrwwqqjlj2/HnGX7kIAL5IcCSEyBQkhGl/OgvWxptjJ80FFbW59GtU43MpJom6FzfBG/8VW8arKZJLZi3BKYuOQbzxYtRXCfVBKjV0RztNN3gHKU8k2NLNBqA2hHn4GvwK4w1M6u/evteiHn5INNDmVzCaARFpkA93AsP33iIp/pqmhhDLSLqp2lJRuVPQ12wBYV+uo8lCxfA7sRtsdGormvMHbkSkGW+eFREPCokf8JFl7CCLVxOcyMmuVSMKB7ndq3GwiWr8D4oDtRmMnkxbkOV/47YYcniRdh34cn3H2JYMg4uM0eHP2YjSlW/0nC4kuMj8PGDG2ISsp8/FOL1Dg9efszSD2VSVk7X1T1WOHzzIZZazhVPt2rRsjzOnH6SwSDS8yES64+D5psDcI9W4cbzTfUHuj2BzcplWLx8A9xDs9lIgp65DGIp8ZG4fuogNlpbYtSyoxltKyMCsUpFkZKAx5fssfeyk/jeqGoHzBpcBS4fwzNQgaPn4R+LMmYaEn5K7PyGSYv/TYSWtzP09bK+/hc30UZ4jGIblVH+brBZvQHBibwe6jCfMg/x3u+QLKGWINgHSSY/cTpoITStCL/PCEifw8vVr4vL+9Q+Qas4+vw1Brvt1yPs1m4s3HAAoUJ9aCRHFoIU2WeZtVVlH4d85YhAmM973Lr3FLsOXMX05WtQO/IuTr0KhpphLXSo6AebQzcREBKCD0+vYPPNUGxaPwN37O2+f0mWI51+VBRiIp0gS47Di3u38OjyIbgY94L17P9h91pbJOmrbpuRJBYZHob/9q5FZNWeWLFyBYp/OYsjz75dA5eMj67vkZAi8eskmYkKuINcHDB28kI4Ol7GhDEz4Rv7jYEkisa031uj84Cx8FX2QQCWiBNb5mPqDEscddbEshkTsXp2d2zddQm1eoxDvYgrmLdkBdattsZC29uYNPlvDB/wC07d+awCLUW6iqKkWIR4vcKKHY4YO2cZFk7sgXVLbRD/3aNFzxxPkiWEYtmUaUio1h6zV2zHwj/qgX2HmFjvHEHRAAA4BElEQVTxSMK/vMIH1EbArV3wSuufBk2bhctLJuLmC1f4+/ngv/02cDNugwZGqvH6+x0TTTNYrRyBw3v+Q/qnwcQob1z5kIDmZSWG9L5rY/LukYJbN26hdWNTbDlwVyysTqkmGNk0FjM3HIG7jz/cXbg1tUsOYsS4vvKujFT51OLcYbXpGLycbsFy4njc8+AGCSRTaBphxLx1sOxbDVazVsI9XPKjimTEQnAXxpxayvPHCSQLwtm5/RvYwRsuqZkJE5jbu/ts6thpzPHKYTbgzzksiQ9JCGRzLBawaPGccRH78OAiW7pgHtt68DKLSOTCRQls8dzZjHcq+kVMpNfgd3y46FEBX9gp22VszVEHtmbCQLbvSYg4k9cnbdiOG184t3K3GenEGAt6d4P179mTmS+wzYgqSghgluNns0iJdRgZgSroEIR5s80btzLrZctYZNo6jdB3l9i0tadY6oqcTCjOt8+yiw9cMz0U3iVifh8esKVLN7CQNN2DP95lk8cPZfM2XuUeHwFbNdOCecbwgSL270pL9tA3LhuthezqtrnstFNENmGq5JXI9lqNYR1bd2YOXzLX+788voZtvfJJlUDkWVev2zvZ7EMvmChJwN48uMLWrVjGFq/YynwileFXPc8YxBHjo4LZu1c32QqbIxl9T3SQO9u6yS5Lfx3mejlL//T8qBX7a8YKtnLFKnbhnktGWtlKl+PYydHsi2dQhoC5M0lia0e2Z8OmLWM2q1ew8WMs2GOP8Iz0cukQJTOfz+/ZcdtV7FF6HytKZM+5NYTHbkn2Hcls87yJzCkk9fngf89H/96frbdZw9ZvP8h8wjP7HbnU8xuhsm/zn9hfv1VjA6bacu/53/4Kf5OBMIotW2z1jWfh3WpYcVch2KqUZX4JiJLw9tZpTJy6BE3/nINh7WqLc/r04CSs1mxAuQELMWZgd5SNfIIHSTXRpEpZVNX+jIMvUlCnnDEq1WmETl26omXjWtBOiYXD4a0IKdYJnX6pml+Jij4dMZFeBznwQUoEdtgsx47rfti1cQE6dmyFg5v3oWPPDqhYtyEub1uLyr80R8XaTdGtm5K1mRyIibg1SUFBIdDQ1YeWhjoMSlXHkL7N4ejwBt16toemGqCmaYhquu7YfSsY5UoWQwlT/RxyUw3v+MgQiGI/48KH4hjZ5xex0vqlanKjAXsQw42eVOGmTaVfpavWRe1KJdNvFfr/2BAv2K+ZhR13E7FyhSVKaKd+C9bQK45aJpFwiquIrs2qo2EVdaw74oTubeujQb0KWL3AGjH6ldCwehmx/nGhntizfgU8zLphQu8G4JqYSl1Znzkt/NKxP8rEfUREqaZomLYHQDm+P7JdDf0KlVGsVCloqRqktBbBTy//7O4DHSNT6GimtjdDs+K4vW89Ll6/B1a2CcaMGYVfjTyw9MRX9G9XS0XaEsPr//bBaucl6BuZ4OP9SzBq3h+VTTTw6eUTaLFgnOdmDHRonDqtUa9kDQQ4crt8VuuAKsZCnD91Be2GjMPYP/ujTuVSSvMMJscG4/TBPTh/7SY22x5Fn2GDYMD9iOXORAPCcG/4mXXECsuR6Ne/Nyqa6cltW0qK8sOqubPhFKYOQ41IXLzrg/6dm3K/S/546cm9M18+iPpdesKQ/wHnxuwa1jLFqm030KtLM3x1vsWtFS2DabOmoUvrJjDRU5TR2JzbvNuLJ+j41yg4P36HAf06it9bcqw8dXW8eHCTm62ogxKVKkO7sPvWwrNXKWfZCYjYBdv5zObwbXZnnxWzv+edJYvkMFdmYbmeJfEfJhKD2ZzJc1O/zoni2frpw9i+m+8z4wsj2IaZk9jR2+8y/RTSRUykV5t0Pnza/7bMZ+dcQsXZvD27IWNEwP/FKTZk/HIWlP7hTmnaTHbEROz1fwfYqBGj2LxFC9mYESPY3suZO8A9PbSC7XT0yEgY4OzAhv09nr32iczwUwUHP9p97eQBtnLVSmZ/5BILjU0frk1k6+dMZB/CxfMjxCgEvo9Y7y792WFHiX5HSSDFeL9kk6fOZ86fXNi0iYtZbNooZYZ63AyQtbMmMXfxtoIidmiVJTv/xJkFcVNGPD+6MoFEfG/nR+xDQExGUtVx5PzM8Tvizpi4gIkHeHkgHM+d883Zkt1XU2fgqA6kDE0Dna8y81ET2Tbb9ezPv6Yynww4GVHSHCnszt6lbJOD27cBSnsvDHnDxkxdn/PupNw70OoZE9hnieklZzdNYd37/6GU/ZO4orldbJeOM2f3P6f+tvu8usZe+6b/mHMxpDJ5y1xdPijMiO3p1dPYf25RObZv/xfH2Jyt1zLCk8Lest4t2rB/5m9iYRJ9cUYEBXDk2uY5HR7tW8a23cx8b0mM8mJLrWwlnhMhc3tyif31+2B25CfZAlAAtqopYmIImzPRkoVlvsOJOTzcb832PvAVu7/c3sOGms9kr/xUZBoMMZH+LOTAJyXWm023WMbi+I8Rwmi2bMIQttb+svS8FDw0JdKT3X3plaEFv734hEUHWOos8STmfPs4+/1PCxaSbjMlh7P5E6ex569eZWyznpFYWR0pySwxKfMXNyUukM0bOZydfpj6suH1/AzrPXQWi06LEv3lNpu87EDGi4jPG0d2403WD1/KiMr5/Aa24fz3U3ojP91gU1cdE/NIDv/A5s9dywK+sz6VkUj2Or19eDfL1v25PXPv/9vKVu6/yd64Zj6n2ees3L55mV6eEuHKFi/ZyO7eucm2LLNkC20vSrw4KjcfXruELzfZuOWn0hRNYUFeH5jjjZvM+UtAhvKRbtfZpOUHxX18oMtVZmm9l0VF5myIZCRUUEeCmwObvMFBqvTKwmTbXAvmkvbBICk+kr1+ep/duveMRWZ8vROybQsnsSdfY5koMZrtWjqV3XULZtFpR6ZIhSSngXlp8ywplM38ZxzzjU5kwR4v2XTzUeyBR+aH8NAPt5i13XkWl/kzX+ja0vTXHMeMCzcg3Ocdjh06hLvcTolm5aqghPE3Uw809FHDyBe778WjU9NKGcJUalAfp9avBkxLoEn7HujWuT2qlfwmbUZsxXIQk1zqSyjA46uncOz8dfjFaKJGtQpImyGVmjCHNqOmbcLtAvwa9nf8Uap8NfTq1xftWjeC8u19x+D+7Cq2bNuFsw63cP7iQ/QZ2g/63Cyya/YH0W66JXS+vsL65cvxWfdXbLKeBkSHQVNPH2rCeLy6eQqvBRXQrVU95Z5+xx2B4fbmKe5wGzetPOmOQT1+FS/yf3ZsA1J6LsDwNpXh9eYmtu4+h7ZDRqNVnXLi6WI6ZlURcG0z7K68RYPfuGlllaqjehmTXBqt/Afn1u+UrtUI13esRs2OvWAsMS9T16wCnh9YguNOUejTsxe6d/sNhmlTZOVf64KRMImbfndijy32HT6J29cvwFOzEdrVT532m9szFx3iicNHzqFlj76oUEx1p5jnZXq5mm5xBLxyhFaNpug96G/0bVs368YcBVOdcpuLpml5hD09hFOOz3Db4QKefxGgTo2yuLxzNSIqtUfd0vrQLV4dRj7XsGr3CTxzT+F2x7eAmYGO3Or0o4KpaYlw+dApVKpdFb4fnuPksWM4feY8bjz9hF9atYAB11cpC5PqVfSwevk2ODs9wdmLjtAvXR36se+wwv4u+vduy73LqKNJ0zqwXTgPF6/dQZ1BM9GnaQVuCnlhz/X80VrMOX1e2jy4d74WjUpi2ey5ePApGXNWr0TDMpl9qX6JqujQvA60suzik3OZBRJS6GYrFfAdAYHfczZ8zCzmGSZgcaFf2DTzf5hHbHaLbROZzaysU874aa/LLSawS8+/fJevInsQk9xqL4WdWGfBtlx4yX2JTWaPj69i8+1uZZMomzbDxXrvuI/NWLKDhQqya2fZZKOAXj6PjrIJC3dnfJWLj43OmErnsGk+m7pkDrOYt54FxKQOTyZF+7BJk+czgVhXIUuSGLVTQPXzJHJyTACzmmzONhz6j3n5+rDD2+2Yb9psiONL57K7Xz6yjQsns9lrDrEosb+QXTp9XMxIJPBhW9fv5trQT/zsmSet8h8pr/1O0Nsz3EHal7IWlBjGHjx8mzFymzVQBe6EMWyNxUh2wzUwTVkhi46JzVA8t2cuOfmbaTgZKZXfERUWzKIEkvqr1vRyaTUsjApgbr6Zoy3S4iZ8vs4mrvnmuZSWQMnCIr66sv27d7KLt14wQdqsG35jp7n7Himsph4fP6Qu8cqDBraWU5ibEkzUU6Y2T9Nf89BwCzqKo91i5uCZ+SQ8O7KYnXSKz7YY8ZSzpbuY48mdzGLJVqXYxTU7RYlJdlQk/JI82ZwZGzM9hCFs3sxFmfcSLlVpMxIqc84UtsrSgvlJvqfxEVISmdvHTywu4DUbMWImc/Pnd98UsYDPz7mPOaPYI0/lnR7Fq//tdc5mBrv4Pvtd/tyubWENO/zN3ILTDQMhe3HOls3fcuXbbJTmPu/9jpDtWmLBrj5/wVbNmcROP/dTGgb5VSScM7Qt7e58lzwmxJt5BcWweHrmvmOTEOnHfbSxYJOnzWbjzEeyex6Z/Y+qTi//FlJKrBebyq1jFi/X4AIFkaEsVryRBLeVRHychMEhZNfs5rIddzy/zUKl70NfnmAztmf3wVkxsNzfa8X23vdJFVaUxEJC0n+vUlhsXOonYD4wPuwjGz1ubtpHYcXQLScplanNK8o2SAUyKisvmZhVrANNbtey9MvTS4ha/TJ3UEz3B7dfU2CIAJFO1+DXzgq21o2VdsoLMcms9Wxdanqo2zBzpz8Rd66U0KB+NlFVp81kVV6IGHUNlNTK9A349BQ7d+zBi/By3DShlbDbYADbzcvwNTIOGiZ1Mdd2DyqaSCTITKqkriQ8CxRieV0zCf1E+PLyBuyvemAld5ab5SsfHNy3H81qlca7J3chKNsV1jN7S8RXLmde+53E6BDo6Krj4KEbWL9yC9dusuuvlYtNbtpEhAahfNUmGdFSEqLhcOoA9v17DkM2nMFfvzSlZy6DDnfeZGIoVs9fhQGLbTCzvD78na7AYtFatDiyGlzTglG1TmiaMBJjLT2xaMUyVG/SBRUl0quKU92gMsZ2N8WOc89QP+EZzj0NwpI11tx0TsD7/gEsuxqLET3qw/WxI+Iq9MTijlVUBU22evo534WfUSO0qloMIZ6vsGrnfUy02ZptXEXwbDfCApemr4ZbqT9xYpc9TNuNw/RBzQFRHJaPH446A8fBKO4rbj91w4zlK6AMi7+Uqc2TUVkET9kv/f7OLJUJ4BSZjEHG30969nv1H3cIuxB7uHnyBkpeU8Qks0lk69IsjX9GZx7Y6/HiESq2H/hdVFVqM1mV10Y1A257+QghGphxD4swFFeuOWPaans837sEF5xC8Qd3zM6iNYr7Y5tV3/zcqUNXQwNJ3CHzOnx3kxIN+xWL4WPaAmoh7xGcoIV/Fm5EYlwE/ALC0LXPYBjpZH78yk+J8p4mT/0Oi8feLVvR5H+LMap2KXlX6afJV75GA/gcfQ30qi4u89OTaxDV6sOt6+qO6SsO4I8mc2FUStWfuczqUNMxwfxNW6CWGIyNC+fCX7s+zNvrYq/jF0zpXh0s3heCEm2x3mIMiut9/z6QmZOSu5gQWsXL4eQ/f+OfXZdgv71ehsI1u3LHqTxdh9Llq6DNwvXc8RBK9FGQiSBi6uBOgJDpKlnKCEO6d0bLzr9B3bAa5nBtrLyx/L4wJsWGIjRBD+VKGGSrZ3xcIspof8HwmUfw38kdKG2Ypou6EaZMHoqTX/TQtkN/DBlZNtv08ukpwlcfP5SpVCn7vSyUqc3nNBxL/j9GICrAh4XnYeepRL8H3C5lZ8WFCcPcuLnxH36sYDlOHeX/iX3wSZ/KkCposJ8vi/9mmZ8qMclvde1dMpu9j0kF9+gqd/RDbgfg5rcgBUoX+ek6m7Li8Hdr3LwfHGILs11/qkDKFZCozw6vZHvupU0t4vIUClPXR/o/O8Rm77xTQKUoZjbU78hab8nMbpEFe+4flyWhKCmKrZwylX1Jn7+YJVR1bqK/OrElsy3Z+gMSO3RyB5FbTxjDXvhFi0GEvj3L2nQazBYtU9yjD360RvmlCGeuvUjNJimc2c6fyKx3/8e8X59mszarznrJ+3tmMauTb/OF87OrswIsjRKxtzeOsHFjR7IR09ax7F5Z3B+dYWMnzWIvPAKYzewJWY6wyhcYOUiUEOHLtiydxv7oP5idcUo9/iWLWErW5mX8JiKf3wDkTapI98eYO2cabPbfEYsWyE3D27jKGlZrbOETkZhFXOf79/BL705gSXG4c90BZy5egDBLDOW4EcV4YsOWPdi4disE3EgJS4iA/bIJmLP1IpJZVh1VhUlWrbPeff34jJs6thprbGzx8J131kBuFO5TrC5qGaoj1MsJl04fwv334VnjqOCdSc3u6FPiMzYevoXohGQkRAXh+vFd2OwYhQUTOqsgke9VbjF0AjyO28A7KkkcqMGNXAoF4Th3+QV6dM2cyvh9SsX1cb9zEAce+HKdjhCu909jwdp93MKC7y/qd75nIt1HE2NnWODA0mVw8gqGSJQMr3fPsGbhQtQfNRfV+G2XVfBK5kb6I2IE2LVlP8ZarcfsUT0zKCT7v0FIpX5oVt4IosQI7Dn0FHb26zBrwXQUU+5JARkMJB3RHk+wxnot3BLSRq20zDB1zU4sGd8HlZr+jprh1/E8MOs7k2R6ZXK3GjQBDUzzp1GNeg2hCBPyTaq1xA77fzG+cTwOPfT5TtnqbQbDfscGNKtaBhMnDYXd9hPgXhcV/NLEwGmrud15N+L+zi2I+/bHR8navBpvMSt4jcmp+EJsnT8Vbc3/weEDd7BsxWxoh73BjHU3YbdlQer0M+7VZt38uWjfvxOO7j2LZn/OwKhujeVUn4IRy+ncBtzR7osZ3cthzfxlGGy9UWwcZeauekwydU91OV/eCbuHCbBaNJlbIyjAptkTYPzHOkzsVFUcIcLpDNbc00F94TM88dfD4iVzUIHWeKVhZHjreAzb919AvF4ZDDYfj4EdGirtWuRv205e7mO+vsYi672o0oB7EUkKg9OHAJjPW452NUvkJbnixUkKwdTR02FaTBdq9X7HgvH98P3sQup38luxiRE+2Ll5Ex64fkXtlt0xebw5Kpgq71EOkpwSogNw4vB5dBk1ARW56fehH+9i4ZptEBmURImaA7DWspdkdG5afgRWz54Hg2oN4f3xA7pPXoqeDVKPYMkaUXnvREmxePzUCb/+1lb8HCZ53MLqBwawGtnqO6WTogIRJDRBxeLKsHLuO/W+8WDw5tZHXn4twORRfZT7NyspFHO5dZPzbTehmJQZzN6eHqhYtZrSsHC5sBE30AuzBmZO6f6mEUDh23yWYVi6KVACcd6PWc823dhN78wtKZ/8a8123vJMLSclis36X2c2b+MpFptcoEXLb2bCaLZ0igX7GubBFi/d/r2cqshEkkKSP5s2cR5L4PwSY4LZ0e3L2fgZy5hnaObuwO//28K6DrVgDz4GSaZUancSt+tfgvKcZCEXdRUZ4s9CIrNOXZQLwQpYiNf/7WQjh/Rm83bdyzlnVe93ciZDIdkQECXFsTund7OxE6azqxf2sYU7b0rEErHDC4ax/U9CJPwknSksLjb2u2n6kjGU1s0d1r5iVA/2x2z7jP5cGPqcLd8sMUVYaZWXrtjry3Zs7pp/2W7rGezGl9Tp0dJTKHaox117tmT/Q8VWQlbpU2LYkimTma8SLw2gkcpvPxMU8P2ljXOQ1H0+/mhYPDXn5HDMm2qFP8aOQLWGv6K4eMeMAi5UzrITxMVB3yBzUXbgm9PcIa3nEc5tXPBrrUpo8EsLNG3E7WQaG4bydeqLD6uXMxUKVZyUxGjcOHsCxVv/hV9NPmKejQsGtwHsL77A3zMWo0vDcoj1eY6bfiXxe5vU0cpCFUiuMudGHq8fxfzN57Ht5CnUlNg1Wa7E/JnCpCQiJoHbLVKJD/b+UZwxwZ+xxdoalf9eA/PWFbjsErFm+mQMtNqFumbpn8ZT8PG9G2rVq6c0X8J/lBufPjYymJuipYvSxY0LIjslyyMF7i9ucFNWz+FrrBDWdntQJ6M9ZaoqjHTDtCVnsXnrQm5WEoO/lyfMKlXLZoQ8M43quER4fsEOu+9EYNbc6ahXIhArbN5iyZL/qQ4CKZoKIz9i2tLz2Jwxo01KZEUI4pYduLu8RYJ+OTSoUU5C4iSsnz0d/RbZip+hxLgYQNcIyrI3XHyEP5zc/FGncVOY6mXObQ92Ogub29rYYNlPvCQjOiYRxsaZ78cSgBTSqZqLHgqqqlgc1q9Ygzhu0rcg3Bd71i6Ag1Nwltz7TpyC+zu2iNcR8gHchw2YqAXj0ssgGGopN/6vH59jl+0WjPhjCF4GZa6LKNN0EFpW0sO89ZthvXgW6hsEYUSfHjjyyAdKjiRL20gWRODJnetwuHgC9tf80LSqITRMa0HwYiOuRlaH/b4dYoMyIdIHq7jdFGvXUcUN5tVQok479GjXCOXJoOTWXofAZvZETFpuL157zZJicO34bixauACLl9vgxefALG1M1W6SE+KRyK1ZCQsMQrhWGfRtwRuU/KUDi6l/YtOmw2lrdFLw8tx22F9xJ4MyFRASo/xgM3cSZsxbhQ1W8zB+9hr4xyjjCv80hfPxX9TH65i+6SlW7LDHvpXm2GZ7LNs1X5qmtTGyeQp3LMZ92FnPwqbjD6FK64ykr2NWR4uBU7HDaiROrZ8Nu7PO3HtRZD5qQ7GSSGeSqYumaR2MbJaCf+96IZlb737+6BH48i+ZCno9OLoe+266wNvX/xsNtDGR2811G7f2+NapXZgydw2C4hVXT0nlhNFemDd3Fbz9fBDKfXySvEo1HoiaEdx734uXWD13CvbdeC8ZrPBuDSvuUngtikoBNW0YBj/A0r038d/V2xgwaSE61CmZRRo1bVOUT36No2+SYKStgTKlS6FNr8Ho0qI2NNWyRFWqm/cOe7D+khemzpyCIb1aQZCki5Im6ets1NGoUXlstL2MHt1ac9ss18Kf/0xA91a1s99uWYHJsORoHN6wEP8+ikT33xogvcqToz0x22I+DOq0RI1yZnC7fQJhlbqgaaUSaNmmHi4dP4vgqFi4Pr2JHfsvY8SyNWhSRl+BSeRd9NhgD9iuWYJPrAaaVCsOY1NTfHz2EBVbtoeRcn+HyRWSmoYB2vYcCINPl/Basz4+nV6FiFpDMHPMULRvVgv/rl0I1O2CKqaKsG1DrupKiZCCT0+v4OLLCDStwxuODC63juCfiVao02Ug6pUX4cHzKPTt0iwjD51iVSF8ewInHrvj6X+H8TqxMdbMHkhGJU+IJcF2/ky0mbERFn8PxG8tG8HnyWm8SqyO3+qq1pq/jAaTjUO3RFUkh7iiTvOWMC5WBXHPDsOnVCvULK6bJTZLisbrty9x7forjJpnjb97tYBWeuefJaaS3Ahj4OETBTPT1BGXYuXLY//SWXhyzwGuaIjF04ZB+xv9NfVM0bFnP2j53MfJ52EY1r+9ksDIXo28MElPWaFuLeyZMxZX779Bo97cDKZKkmcLp8eS3//5dbOOJ3bidagIdx/7YdXSKahdVXKUkpc9Bb6fP+LamVMo1cEcS6b+BZNvG4n8qpitZCGeb7Btz3nEez1BpaFLMLhDExT75jzAxOhgfHj9CGcfBWOu1Qp0/6VStnkpqqf8HmajAESZwA+nbn5GeDiD3aH9qJDDbne6xcvi6ZF/0aHVBk4rdXAbLir5lYw9F55g7c4DQKA7/rt2De++BKJOhyH4s3sT8UtcWHAYEiO+IoQbwCyrowMDJbWX1DR10He8FdTsluCOZx904UYj+ev+sX3ovGA7BtQxEt/bHa2FCRNW4ffmdtwGDx2xx74dgnx9Ea/eEeYTsn6oECdQ4n9C/L9CU1sXH7mON6RVVZTkTr0209JAJDcCVZZ6LHHNdx89GbNmLoZh+Raw7lBT7KdpWBILFk/EvO2X0GH5X0rbQsJ8XGBvtwOCip2h73cSnj1aoCq3845JxUaYPlmEU+tm4N+oAPibtsG9Z2/RoF4dFDfiX/rVMGimDToF+UPTmDtAW0/VG5MIHu6eqFKjOtRiPuCrZnu04o7hvHp4K8489sHUBVvRtJw2wqPiUcxEFTZKycsjo4lRk6alRVTD4EmTMH2hLTrbLoGuxAevpOhQGDUehhOjq+UlU4WNkxwbjLPHj+JzYNj/2zsTuBqzPo7/wjD2MWHsM5Z3LDNjmfUd68wwGF4Mg7EME0mlDZX2UimSkoqEJNlJJMZSDKVkVypaJS3a97q37v2/T9vtppQsM917T58P91nOOc/5f8+59znLf4Hf3zE4fu4QunMmPfcueSGfn4v2n6lgk3JDk0U5jJquiP/e3Vix4yuGUGKZgJOkvpiEr8okLfYmHB1249N5BtBaNAHVyvqSBCQpPACZH32JIBs19F/rVe9mQcgJR5xJ6is9cdi5mPN+fjcwqk8+TE9k45pi5dhOvN2E3GaCieE2zNIwkt6Yx021M5X19PyibLp/K4QeRMZTtd+Q1LtHSGPzqVpoitLjKTq10gkGj1fudkV6/8p4RZSallnL8cD1Q7ZcvKFVtMZgEz2I52LzCEvIeLkCRfOkl0NDkpVmhpOq5iZRbCZPcwMKLxLPUUYWS8eSxf4Q8YvSeywsoM0W1lTAhdoszHxKrhv16dz92o6HUsIvk8oyZfK9FUv+rjYUnPVCQFPppVNXsrJiun56F+32qYljFnl2C83VO1ArrbA4mnR1nGpdk5aTktwU8ty2npSXLyCtLbV/b1+Ucb+lHoUkJtOFk560cMp3NGWBDj0pkuH+IwaorCSHfA/uJBNjI5o8bhz5x+eTsDCKVs5bQioKy+nw1Yiq1EIK9LAgR/84sdzs8EUCtw5Zk9P5GC4qWBbFJ9eOw/xiWqk6L80hU6WldC26Mvbe0zvn6W6i+FinhKw1l1NEVo2jQi4yLkWGh9caK5CgiAwUZ5HKWivKqh5USSioRmMSci74GmMSfe8GpRc1cxBCHkWEPxa1Uk5SFMWl5ovOqw/i/t5Fpm7S44wnKzGKkvOqvGpy7+TQ0Bf6crngnDMeU3VVqXbGU92+9X1Kx8KQ+FLAOzxOvH0KCkq6uP04AcFn9kBJxw65pcBHo+bi06yzXHiH4oqnl+QkwkTHAiUtK9eYWreuVvt8h5X7V4oWIvSiJ5RXacHBxgxrbQ6IYmyOXqjDxRvaDntrPQz/RB4lOc+Q1qobPpL6XVrxhhDitq87VJWVoGbiiszwM3ALeFqR4NvveuPE8WCRPU5OfCB4nymh1T13xOS9GMhIvEwpOZZrj8lDCOprTaGqZ4tRv+vglxHcNonYX49hP8Jllx1yruyG65kg5JRvVcroX1bsHURiMFL8d+JJQSWHIb+oYnjhFTxMK6yiIkSIF6dKNG6iFFISwFlHFa1Gr8ROtwMYmnsJIVW/t3WEFebgcX4bfNWnJyb9PBb/nayCw/ts8HHdOCJ1skr9BWERnLiYiAUDfoaF5Qb4nPZEV2EJ5NoNwuSvu2LQ1OWYNXowSotzcdbdBscT+0P1p/5Sj+VNBPx67gqEua6CupYR4l+IQ/0m5Tb3vDwuxmTG4IUYN6jSCWHfL6dwuzTiY53G7ZgL0yJhpKmJbpO14WRniC4SPz5oJCbhK9h2Dxr5HbqKOXZplv1AriUueNgiKC4Jh3dYQnujO+Teq2ty0X/Cn2gf4YnI7FJkJjyALRerPUOCX+NyhTFYb38ITx74Y43KSlyNK6xrPtGiA9RWTIS9qy+otBCXj7rioH94s2zGd1Ep5v31FajmcSqcAWEJuHHhMtbZWKFj1Q9f9AVHnCiYCIPfPkNJ6n2sWrcL348eipCQCCib2+CbflLkPU+QD0/OXiu2x1ysV5xQQS3iwh7sj5DHhjWzQcU52KGrjA8VtmHJ15U2OBfdNyGj5/fomBOLs5fvQ9nUinvp1FUJeIUmkIAknI3Xret4/9Pv0a9z5WJCxgNvmHoXwXH9YpQr2pXmJkBrjR0sdzpAvnUZTmyzQEhGG+4FwsWnShfAyNIUwjt74ZkzDoazhkiAzK9YRc77W2JsNK7/5Y1+s1djdJ92KFcdN15tgoeNqI5XPyHUezMi+6vj95FSqiddJWh6Yjza9uyPDlyHyU+LhfvBC/hTYxU6V2lqZkX4wvxMMbbqzatUI484g4mL7bFg0XQUZSSitNtoWOj8LpEqU9Vt/bLP7Md+8HrSCyumDAPv+V1obQmAs61WxXdLPE9h9AXM0dyP/3Eqwhrzxojfkvnj7AcnYXevNzYofFeLRVlZKVpwfSzExx3uZ+6irFSAiX+oY/Ek6Y6bXAvC65wIcuFkqI/SUQugsUAyVRVfR+zyPIK8KKzScuXGPcrgp8ci4PpNPEvNgtwHA6DPxejuVrGIQzhpr4f71B9tMyOQI/8jrLTniL6zZcUFKGnRDh2k0Av+y2MSNszkddvjn8j34Po1DCj3bdCSjwAPa8xe74v9p05i2siX2wVmhJ7EQv2jGPzFKBgYrUXvTnUnn/9E3V/3GYKceFyPa4XxX/bl3snRUPltKgpHcSYWW9TwQeuX7cuVwkp5PuKEXTFhgSaWTvzidR8vcfnYpLLRJivFIZdteBR5DWkfr8JO7amiHIK0G9BzScIWs98qrgl5BUjO4qFPz8qVO1FCaTjgJ0BbQQf8ITOwzXRpxYCWV1KE995vg7DzB7Ht+A1M/X02gr39Ye60CZ24AUrh0yBsPBSFhfN+xmcDe0sDhXplyEoMw67tLiho1w3ZNABOZn9W8Dljy628KlhibLea5dfAPavhRXNhvXAkWnfgvL3WKlGAv5wNUTjeAHOHf1DrjqSe8DmPkptMOJvSQWPQr2UiAlL6YM+G5SJxnt87Ciu/9+GoO0t0rTjjCZIE3THoo5oJZHLgPuyL74NJ3wzDt0NeNPgXZZXQA0LMnYucPVIIkiOD0Pl/Vtiw6CuEXT2LZ8lRuF02FiZLvqmSTYi96zUxcLkNJvRrj4K0KGhobICp+z70f4lNt4RCabTafjuMkfqNOv74prYjmRundiO910TM+HZAo2XIWoLEa3twongS1kz5REz0MjgYGWI+5z24V9XihdhNmTpMjbmF67GcreSUGgdPMgWgicLmJEfA2/ca5Ad9jZ/Hf41yM+WEKzuxI344bJaPFpWWXWHH3F227JiFBTDV4rwo2zjV629DUpjw85/j+IH9CI3PQFpEEHot2gbLGd1w6upTtIryRsEP67Doy9paRtUNz0+LgLbZLixcbYjRg+tPU522eX0SokLO4eiZQBSUFuFqUCp8/A4jNfgcWvX4iAsVdB7OnJ+Ml62F+O+zxJW8YTBY9Rte8NPTvMR8F7WpTydW1q8J+MWUkpRMRfwavfaS1Hu0VMmcxM1ybh60Iru/oqUUl4BSklPEbB8KyUTfgI7Y6NC5qByRzPHX9pGm1TGq1DLnk93Kn+lP1XXk6VdtlyNKKnUHJXmpdMDRnFbpWlFCdrktiZCu/uVL+VWmW5ddTMk3uqCW3Jf32NJSlYW0Us+W8mq6FxWkx5HT+tVkseu8GPNaWSXy5Li1Jvk+zm2g7mXkpK9EQUmVBqbF2U9J+89lFJZeY4dTnJtMezdo0CItG0rKq7neQKESdSvmshuprveg4vJ+w+fs3XzEAqkLi8l6tTJF51TZcXBJvOzVafLMuRXfsaykaErMErdjkijR36iywuJkWqOyjnJLhZQUH1frt/mNCpaSzM8iQ8h5iw25ePpSQVX3KcuJJHVNG6ox2RJS6NmdpO/Igs/nxgaR5pI5ZHVK+t9d77KLZ9w+Qqud/d/lI5pd2RlpqfW+t5/fP0Ha9j6V9RWWUm5u7fFAsxPkxQqV5tJ6MbtZzps9BQfV2PULC5+SqqIO5YvGMkK6ftCWvO5W2tm+WJyknMf97U6qpvuopGoslxxxk+KzRULSdTczcrpUY2vOy31CpusdRX5WJEXOd1HP8riJ7E9EQEh3fd1JYYkC6RkZkuKSJbTnzF3RXT9HDZq+wozOnDtHO20NSM3EhTO7lsY/AXk7adGoEWPJ2OEg5VR8s8rI0liPCnOjSV1jQ+UAmBPd1WAtRVZBiL3qQZZ7LlFUdII0QqktEzegNdVUpkUrTSoHs5zh+oN7obVeLOULESvVzLlBf+WEKS0qgNT0bam+aVFC6HWKTKlr6F77oZJ35rROjcKqJkT84hy6e+Ma+V8NoZyaUS0Vp9yjZUtUaZeLIykqqNDNBPFJaBl52JtTcFS65An/ijXeqqNJsQ04sMp5fIFUzT0qFm5Sw87RGos9lJsjzugVHySFye4ds6AZi5VId6MHFVYNAKRQzIZFKiuhgiLxXxUhhZx0Ji1TZ0rnZpNRF3eQ8e6rojIi/dxohboB7d63lyz0NcnUyadqUVCURGYOBLx8CrgaKFqQ4MX6kdm+YJmR/20ImvjgCgXHZVYUlRZ3m7QUV1FkZs0i2Nt4RvMtQ0Bnd6+nGVOnk09kfU6ayminiRqdu3mLrHSUyf74zeYrSj01S791mHR3B9Vzp+ZS2KnN3HcmiEpL8snXzZq0LCvfVTUpJO1IQOar1eh5Q12Yn0FrlylRYh6PKvr8UgUKiKvZbJE0id9mfZn6q9j2b0aoN4yP5cJ5gwJaUSnC/vaC2e5A7NrvjK6cWgfxUrFWfQNmL1+CPp8MxoCe0qGiKIZA7LCMsxXRxIBJU+Bz7DqU9PVwy8Mes4yskHx8E0Lk50Nt8gBE+7vB6XIGPmmfj2el/WBlshKy5A/j/jEbXG0/GyrjO0FriQIWO3lhXN92eBoXj94DBiD3yR1ssd8FTlEY6DQI+gYa6NG+ttKrGHSpO8yMvgKDLafxcd/OSE0vxJhJ09CtNApuV/Lg4bROZPsn1arjjbSqn4sR7n84BTO/6IzQ28G4HxmLvHwevpuzCot/qrStveZpg/3BiWjfZQBMTddCXtwfRiPlS+vt+BBvbDp4G1oG+hjWU1pttRtqPUJSZCC2O+9C0gcTsNdqRYU6PRU9wZ5DYVi+YgZSHwXjwBEfhNyPhYXbQXwuX2nvTWU8pKVloWO3nmhXeamhB0nnvdJMbFi5GA+6zsWBTSvQhvtZFmTegpVnJkxX15i5SKfwb08qXuod/DBZEd/9NBYtOgyA9joNzm5O+jpV/vNYPEwBvh85EOVxGPN4rfFBx0r7QEF+HDT1DmCLs2mt8Q8vLxWHnTfifEoP2G3QRu/OkmVPGHXeAZfacGO9HxsyOeHDa6sxjt3JwkwFDSmww+bDUFcPFrZbRba/9X1bsuNvwMCUS8OF9dIz0ETfKl8a9aWVqWtvc4YqKWVlJkbQIXdX2nvgOIU/rVxhK6+7F+eGPpjzaZ0afZNMNRTJ0u18xfZ3blaGaFv78QUnsvS8JSmivlE9CxODScXAhXOV/pw2rVOhudMW0Z1y3U7OlbiRmibnQjqdijmNgFIupEgxv6FlnTeqRvPOXJZLRstmkoKiBl0O9CfXQwEV9T27TZ+O3Zfe3bU3bRTHNer0uIHduTctX6Lyc+F2An0P0y73w/QoqWq1syyfdJWU6HmNxo1EicQq+24J5KfF044N2qRt4UqZnN60j5MV3UoT7yzcbqWXE6kbO1JGIad299CH5q91paiHD2V3R7feJhFQiLcjLdc0p/Bn3Hev5BFZWBypNyW7+HIC0eGhJNU/57w4mjN8ENmcjuTC7zwjU5UFtNTQVTQuLCdz58hGcjgbJYIkyI0jXTUtCnxUO1SWKIEEHBTF+ZPahmP11FRAJw971qt1VU9iCbskpO1GmvQwq+6YNj82gLyCnkqYPP9sdV/mukgqJ9Y8zuD4oLMFzJxOYsSkeZg7cQS8txnA9Wxohbzt2svh0FYDWO65ClXrnTBePgUtChOhb7wF/Coin/6sCLlbLnCwM4X17gtSyalaqHZ9/ovp3Z/gVEwL6NnsgKW1DoZy25CCMuCTrvlYbeqCfO64Veu2eP89GfXw0LIT1FYtQPcR0/HjmJ+wcuFYDh/h8+9Hwmu7uyhkSDVT2fwUorCoMtxOufwlWY9xv6Ad+krWou27azq5NhgzfQGUFBZgcK/Olc9p0Rod27QCj97dY1nJEkhAUIS/9ttizp9GGL/MDFs4zZAP32+BGeqG+FrMIZgwJxx7r5Zgq6UG5Nu1woM74ehK4Thw/Snek6m3PhBzxQPuAYncz3IZwq8dh8EmN9RENWiBb3/VwI71f+KYrQ62e4VyJkE5Etgx/t0qDxr2BaT657xlRwyb8iuyL3ChwVr1hLnLYfwmH4PTYZki8F/OWYIgZ13ceBCOIiHQolN/bHZ2wBiJclAjEqfioG3/CRhc4I8bSdVhqyrv87Me4crdtBccDdbOK7lncli8dDqcHA6I/U6US0PwP3UK7bp3lVzR/oGay87rpSQFVlorcL1oFJxsjDCsTxd07PEfGG1xQnHATtxL5+GHhfOR80QATS5djw4tUe4JTkfdFH/oGqBtVWPw0+ORyu+E/87UgKHSlH+gif7dR0xTWoVAFwcUCuQwZMQolIdPKkx/ioG/muG0qwm6MTU89Px6Hvql+OBOGo9zOR0HZ8u1cLpQABcn7boxjP7d5vx3ni4shPnKBdh7whfHPVyxxsgVq805NaF/pzbN86lUhHOnfVHMjXYFnBfpvzzswB86E31ldK2meTZSM6iVgI+eo37F9OGdUFYe/5jrNxuNTZHHLe6J/xEXIqQlFzeOX1KM2+f2wTuhGxztt3Hfw19EKufi6aX5eNCYabjrqgcTrZU4GvE+TNcp1hkMt+nyMdY77MLozhm4l5ghzTiYbK9AIDU6BJZm1niUmleZmls8bsWtxij9MQLb9gdWXPufshqu7HComECWX0gIuoSB343FhZAEKVq4aQllnTXwMFiDs0FhyMzORkxYMMwMt2KRhrLUjm86fzoZc3o/gZGdB2ISnyMr/RnOeToggD8SkweykUvll6L+/2XMprKUi++mhUnrHPCFfM26WlHC3zA5kgs7vVncpCAKjlu3IymnEC07D8U6piuNh6ftcSzxI3Rp9R40VebXeSHX37Vk62pB3GUsUHdBr4H/wWpDAxm18Xp5mz8NOoijsT0wc9wwDP6k58sTyuwdwhHT+XCN+ABDOLu3cfNVsUiGYlvJbLO/puBFT4OhvSME04cBx30uYsg8axj8PrJWaeFXDsJunz+3E7cMirPHycRksiQvHbExD+Dt/5yzi1pcMei9d3YntnmcQY+JetikPL4Wo7onfNhYboSuiZnUDpjrysyu1CYggJ+3G46eugX5Li0w7BfOtn3KcNibGUHZzBxuhlqYvG4bPvvwPYSfccS+R50xeRDhRGAKtmw2EMUxr12mZJ8JeTnwOXIAwQ+i0Lb3cChyfkX6dpH+HYXE8AAc9jqPpOxSTJj1B379YTj7XWikK8vYpBIoSAjAOrcoOFso1nQOQQYMDZxhvXl9I7hk83ak/17susqDscFKyJdvVbK/OgQuuW9B0WezMevbgXXusQuMwKsQEBSkIjKtFT4fwNRrXoWXrKfx2bQcwb2VsXHJV8jILEBXeWl2HNdYaxPu+rph+7nHmDjhSwSfOY15G/djvEjHnoeNWqvw6/qdGNql2omMAI8iHuPTYcNqxgLCYhiuXIjszt9y4wEuzjB73TUGXmrvP/CyxeXW0/BFxmmcS+mGfoVPMM3MCr1TAqC3NwaO5ssq+k18WCBicjvih7EjZGLhRmobnAn2VgjI3KSynJr3lnVoMd0As4Z2qYDIT7uJddvC4WC17K1AZYUwAowAI8AIMALvkoCwMAGrdd2wifMT0E52DFnqRSrIuA9lCz+4Ouq8VJMmL8YP2h5P4Wq5nJsMCHD7pDMOx/aHne7MijIL0yJhbWGPruOXQmP+uAY9P9ZbCXZRuggI8mGqpQ8VWye0TrqB1TquMPJ0x9COLXB88xrcxFCs4VSqe0n/hp10tSuT5p0SkMlJpTA/nnNDvx+bHc0gyIjjJpM2+HGtPcZ83P6dwmaFMwKMACPACDACb4tAqLcd/ir6Cr0yriCp0zjoL5v0toqWqHJ4cX7QOJCNXabzuHoLkZYQhbCoZ+g+8HN8MaBHlSyEk/Z6uE/90TYzAjnyP8JKe45o8lhWXICSFu3QoY2Mz9AlquXfbWVT7x6FXWBH2GpOEz2o4Okd6G46iGXaRvh2oLzoOjtgBBgBQCYnleUNf+/oRuy4xYMcn481hoYY2qMD6w+MACPACDACjIDEEHh4yR3GLn9Dd6OtRHuZfGPgxMM+zgFfVElnyBVnQu7DYZjK2W9f9NyJkaoOmDO8RqU8+3kyWnXqjo5tmResN+Yu9QUIsMNYE9+ob0ZvQQ569O5doyot9bIzARmBphOQ2Ukls4FremdhORgBRoARYASaD4H83Gy079yFDXRf0iS8mItYfYIHF/0ZL0nBLjMCDRNIu3scc7X24ac/1GGi/MtL1asbLoXdZQRkg4DMTiplo3mZlIwAI8AIMAKMgGwQ4JcUQa51u6qQDgJc2GGIuGGqUP3hE9kAwKR86wQSwkIg12ck+smAt9O3Do8VKHME2KRS5pqcCcwIMAKMACPACEgfgeiL22F2rgBLpnyG8CA/FPaZCmPlqWx3SfqamknECDACzZAAm1Q2w0ZhVWIEGAFGgBFgBBiBJhIQFsJuA+d479f5GPifwejctjp8SBPLYckZAUaAEWAEmkyATSqbjIxlYAQYAUaAEWAEGAFGgBFgBBgBRoARqCbAfGdXk2CfjAAjwAgwAowAI8AIMAKMACPACDACTSbAJpVNRsYyMAKMACPACDACjAAjwAgwAowAI8AIVBNgk8pqEuyTEWAEGAFGgBFgBBgBRoARYAQYAUagyQTYpLLJyFgGRoARYAQYAUaAEWAEGAFGgBFgBBiBagJsUllNgn0yAowAI8AIMAKMACPACDACjAAjwAg0mQCbVDYZGcvACMg2AV5+LooEDTMoyM0GX9hwGgiF4PP5L/wrbSRT025TGQ/RYWHI4jVWmaaV25TUeamxuBkai9etQVnpi4zqnr9u2S/KkfM8AZGxyS9efnvnQh5CQ4KQmsd/e2WykhgBRoARYAQYAUbgXyfwfye+vIPYiQIBAAAAAElFTkSuQmCC;" vertex="1" parent="1">
          <mxGeometry x="40" y="180" width="717" height="210.33" as="geometry" />
        </mxCell>
      </root>
    </mxGraphModel>
  </diagram>
</mxfile>
